<?xml version="1.0" encoding="utf-8"?>
<!-- Generator: Adobe Illustrator 24.0.1, SVG Export Plug-In . SVG Version: 6.00 Build 0)  -->
<svg version="1.1" id="Layer_1" xmlns="http://www.w3.org/2000/svg" xmlns:xlink="http://www.w3.org/1999/xlink" x="0px" y="0px"
	 viewBox="0 0 595.28 841.89" enable-background="new 0 0 595.28 841.89" xml:space="preserve">
<g>
	<path fill="#020203" d="M53.1,397.08H18.48v-4.57H53.1V397.08z M35.7,400.08c-4.68,0-8.18,0.84-10.52,2.5
		c-2.13,1.54-3.19,3.67-3.19,6.39c0,2.75,1.04,4.9,3.13,6.45c2.34,1.71,5.86,2.57,10.58,2.57c4.63,0,8.12-0.85,10.46-2.57
		c2.13-1.54,3.19-3.69,3.19-6.45c0-2.71-1.04-4.82-3.13-6.32C43.88,400.94,40.37,400.08,35.7,400.08z M66.75,433.2H25.74v-12.46h6.2
		v6.89h34.81V433.2z M45.84,389.37H25.99v-4.82h19.85V389.37z M35.7,404.71c2.63,0,4.55,0.37,5.76,1.1c1.21,0.73,1.82,1.76,1.82,3.1
		c0,1.34-0.61,2.39-1.82,3.16c-1.21,0.77-3.13,1.16-5.76,1.16c-2.71,0-4.66-0.38-5.85-1.13s-1.78-1.82-1.78-3.19
		c0-1.29,0.6-2.32,1.82-3.07C31.08,405.09,33.03,404.71,35.7,404.71z M73.26,408.47h-8.64v14.21h-6.2v-40.01h6.2v20.16h8.64V408.47z
		"/>
	<path fill="#020203" d="M134.94,407.97h-23.35v7.89h16.22v19.91h-6.01v-14.28H88.1v-5.63h17.16v-7.89h-24.1v-5.32h38.63
		c0.42-1.29,0.8-3.14,1.16-5.54c0.35-2.4,0.53-4.54,0.53-6.42h-33v-5.2h39.32c0,3.09-0.18,6.17-0.53,9.24
		c-0.36,3.07-0.8,5.71-1.35,7.92h9.02V407.97z"/>
	<path fill="#020203" d="M270.24,396.7h-32.62v-4.76h32.62V396.7z M253.77,399.45c-4.34,0-7.64,0.84-9.89,2.5
		c-2.05,1.54-3.07,3.65-3.07,6.32c0,2.63,1.02,4.74,3.07,6.32c2.25,1.75,5.55,2.63,9.89,2.63c4.34,0,7.6-0.82,9.77-2.47
		c2.17-1.65,3.26-3.81,3.26-6.48c0-2.63-1.02-4.72-3.07-6.26C261.43,400.31,258.11,399.45,253.77,399.45z M263.29,389.25h-18.47
		v-5.01h18.47V389.25z M286.77,433.2h-41.51v-13.15h6.14v7.7h35.38V433.2z M253.77,404.09c2.5,0,4.28,0.35,5.32,1.06
		c1.04,0.71,1.56,1.73,1.56,3.07c0,1.34-0.52,2.39-1.56,3.16c-1.04,0.77-2.82,1.16-5.32,1.16c-2.42,0-4.17-0.39-5.26-1.16
		c-1.09-0.77-1.63-1.83-1.63-3.16c0-1.34,0.51-2.36,1.53-3.07C249.44,404.44,251.23,404.09,253.77,404.09z M285.52,422.62h-6.2v-6.2
		h-11.14v-5.45h11.14v-6.57h-11.46v-5.45h11.46v-16.28h6.2V422.62z"/>
	<path fill="#020203" d="M328.78,419.62c-4.09,1.25-8.6,2.34-13.52,3.26c-4.93,0.92-8.75,1.38-11.46,1.38V389.5h19.91v5.57h-13.96
		v23.23c2.92-0.38,5.63-0.79,8.14-1.25c3.51-0.67,7.01-1.5,10.52-2.5L328.78,419.62z M347.69,436.02h-5.82v-25.17h-5.57v20.66h-5.7
		v-46.52h5.7v20.16h5.57v-22.6h5.82V436.02z"/>
	<path fill="#020203" d="M416.75,413.35H393.4v9.89h-6.07v-9.89h-24.36v-4.82h53.78V413.35z M409.49,403.34h-39.38v-17.84h39.38
		V403.34z M411.37,433.2h-41.13v-15.53h6.07v10.52h35.06V433.2z M403.35,398.52v-7.83h-27.3v7.83H403.35z"/>
	<path fill="#020203" d="M460.08,396.76h-34.63v-4.57h34.63V396.76z M442.67,399.77c-4.68,0-8.18,0.84-10.52,2.5
		c-2.13,1.54-3.19,3.65-3.19,6.32c0,2.67,1.04,4.78,3.13,6.32c2.38,1.75,5.91,2.63,10.58,2.63c4.63,0,8.12-0.85,10.46-2.57
		c2.13-1.54,3.19-3.67,3.19-6.39c0-2.67-1.04-4.76-3.13-6.26C450.81,400.62,447.3,399.77,442.67,399.77z M471.6,436.96h-6.2v-11.14
		h-34.62v-5.39h40.82V436.96z M452.81,389.06h-19.85v-4.82h19.85V389.06z M442.67,404.4c2.63,0,4.55,0.37,5.76,1.1
		c1.21,0.73,1.82,1.74,1.82,3.04c0,1.29-0.6,2.32-1.79,3.07s-3.12,1.13-5.79,1.13c-2.67,0-4.61-0.38-5.82-1.13
		c-1.21-0.75-1.82-1.77-1.82-3.07c0-1.34,0.59-2.36,1.78-3.07C438.01,404.76,439.96,404.4,442.67,404.4z M480.24,406.34h-8.64v11.9
		h-6.2v-35.56h6.2v18.09h8.64V406.34z"/>
	<path fill="#020203" d="M525.38,412.42c-5.26,0.54-11,1.06-17.22,1.57c-6.22,0.5-11.31,0.75-15.28,0.75
		c-0.42,0.04-0.83,0.31-1.25,0.81c-0.25,0.29-0.44,0.44-0.56,0.44c-0.21,0-0.44-0.2-0.69-0.59c-0.25-0.4-0.56-1.07-0.94-2.03
		l-1.25-4.07c2.25,0,4.39-0.02,6.42-0.06c2.02-0.04,3.98-0.08,5.85-0.13v-13.15h6.14v12.9c3.38,0,6.52-0.11,9.42-0.34
		c2.9-0.23,6-0.55,9.3-0.97L525.38,412.42z M522.19,386.12c0,7.89-0.61,14.13-1.81,18.72l-6.45-0.31c0.67-2.75,1.18-5.12,1.53-7.11
		c0.35-1.98,0.53-3.87,0.53-5.67h-24.48v-5.64H522.19z M536.59,433.2h-40.01v-15.78h6.07v10.14h33.94V433.2z M543.29,410.54h-9.08
		v13.34h-6.2v-41.39h6.2v22.42h9.08V410.54z"/>
</g>
<g>
	<path fill="#020203" d="M83.09,451.4c-0.19,0.08-0.37,0.15-0.53,0.21s-0.31,0.11-0.45,0.15s-0.27,0.07-0.39,0.09
		c-0.12,0.02-0.24,0.03-0.35,0.03c-0.15,0-0.29-0.03-0.4-0.09c-0.12-0.06-0.21-0.15-0.29-0.28s-0.13-0.3-0.17-0.52
		c-0.04-0.21-0.06-0.48-0.06-0.8v-0.35c0-0.17,0-0.36,0-0.58s0-0.45,0.01-0.7c0-0.25,0.01-0.5,0.01-0.75s0.01-0.5,0.01-0.74
		c0.01-0.24,0.01-0.46,0.02-0.67c0.01-0.21,0.01-0.38,0.02-0.53c0.01-0.31,0.03-0.63,0.05-0.94s0.04-0.62,0.07-0.92L80.59,444
		c-0.05,0.12-0.1,0.26-0.17,0.41s-0.15,0.34-0.25,0.56c-0.24,0.52-0.48,1.06-0.72,1.62s-0.49,1.13-0.75,1.71
		c-0.25,0.58-0.5,1.17-0.76,1.77c-0.26,0.6-0.51,1.19-0.76,1.79l-0.2-0.01c-0.06-0.18-0.13-0.4-0.21-0.65
		c-0.08-0.25-0.17-0.52-0.27-0.81c-0.1-0.29-0.2-0.59-0.31-0.92c-0.11-0.32-0.22-0.65-0.33-0.97s-0.23-0.66-0.34-0.99
		c-0.11-0.33-0.22-0.64-0.33-0.95c-0.11-0.3-0.21-0.59-0.3-0.86c-0.1-0.27-0.18-0.5-0.26-0.71c-0.09-0.24-0.16-0.46-0.22-0.65
		c-0.06-0.19-0.12-0.35-0.16-0.5l-0.03,0.01c0,0.08,0,0.16,0,0.24c0,0.08,0,0.17,0,0.26v0.67c0,0.43-0.01,0.86-0.02,1.31
		c-0.01,0.44-0.03,0.88-0.05,1.31c-0.02,0.43-0.05,0.85-0.08,1.25c-0.03,0.4-0.06,0.78-0.09,1.12c-0.03,0.28-0.05,0.52-0.07,0.72
		c-0.02,0.2-0.05,0.36-0.08,0.5c-0.03,0.13-0.06,0.24-0.1,0.32c-0.04,0.08-0.09,0.14-0.15,0.18s-0.13,0.07-0.22,0.08
		c-0.09,0.01-0.19,0.02-0.31,0.02h-0.12c-0.02,0-0.05,0-0.09,0c-0.04,0-0.08,0-0.13-0.01l-0.06-0.04c0.13-0.26,0.24-0.55,0.34-0.87
		c0.1-0.32,0.18-0.66,0.26-1.02c0.07-0.36,0.14-0.73,0.19-1.12c0.05-0.39,0.1-0.77,0.14-1.15c0.04-0.38,0.07-0.76,0.09-1.14
		c0.02-0.37,0.04-0.73,0.05-1.06c0.01-0.34,0.02-0.65,0.02-0.93c0-0.29,0.01-0.53,0.01-0.75c0-0.14-0.01-0.25-0.03-0.34
		c-0.02-0.09-0.05-0.16-0.1-0.21c-0.05-0.05-0.11-0.09-0.19-0.11c-0.08-0.02-0.19-0.03-0.32-0.03c-0.09,0-0.19,0.01-0.31,0.02
		c-0.12,0.01-0.24,0.03-0.38,0.05l-0.04-0.35c0.49-0.11,0.9-0.2,1.21-0.25c0.32-0.06,0.57-0.08,0.76-0.08c0.1,0,0.18,0.01,0.25,0.03
		s0.13,0.05,0.18,0.09c0.05,0.04,0.1,0.1,0.14,0.17c0.04,0.07,0.08,0.15,0.12,0.26c0.14,0.4,0.29,0.82,0.45,1.27
		c0.16,0.45,0.32,0.91,0.49,1.37c0.17,0.47,0.33,0.93,0.5,1.4s0.32,0.92,0.48,1.36c0.06,0.17,0.11,0.33,0.16,0.48
		c0.05,0.14,0.1,0.28,0.14,0.4s0.08,0.24,0.12,0.35c0.04,0.11,0.07,0.22,0.1,0.33h0.03c0.04-0.12,0.09-0.23,0.13-0.34
		c0.05-0.11,0.09-0.23,0.15-0.35c0.05-0.12,0.11-0.25,0.17-0.38c0.06-0.14,0.13-0.29,0.2-0.46c0.19-0.43,0.38-0.88,0.59-1.34
		s0.41-0.93,0.62-1.42s0.43-0.97,0.65-1.47s0.44-1,0.66-1.49c0.02-0.05,0.06-0.1,0.1-0.13c0.04-0.04,0.09-0.06,0.14-0.08
		s0.1-0.03,0.16-0.04s0.1-0.01,0.15-0.01c0.08,0,0.16,0.01,0.26,0.03c0.09,0.02,0.18,0.05,0.27,0.09c-0.04,0.44-0.08,0.86-0.11,1.26
		c-0.03,0.4-0.06,0.79-0.08,1.18c-0.02,0.38-0.04,0.76-0.06,1.13c-0.02,0.37-0.03,0.75-0.04,1.13c-0.01,0.38-0.01,0.77-0.02,1.16
		s-0.01,0.81-0.01,1.24c0,0.29,0.01,0.53,0.04,0.73s0.07,0.37,0.13,0.49s0.14,0.22,0.24,0.28c0.1,0.06,0.23,0.09,0.38,0.09
		c0.06,0,0.11,0,0.16,0c0.05,0,0.11-0.01,0.16-0.02c0.06-0.01,0.12-0.02,0.19-0.04c0.07-0.02,0.15-0.04,0.24-0.07L83.09,451.4z"/>
	<path fill="#020203" d="M91.6,446.66c0,0.18-0.01,0.38-0.02,0.59c-0.01,0.21-0.03,0.42-0.04,0.63s-0.04,0.43-0.06,0.64
		c-0.02,0.21-0.04,0.42-0.06,0.61s-0.03,0.37-0.04,0.53c-0.01,0.16-0.02,0.29-0.02,0.4c0,0.32,0.06,0.55,0.18,0.7
		c0.12,0.15,0.28,0.22,0.48,0.22c0.23,0,0.46-0.12,0.7-0.37c0.24-0.25,0.47-0.61,0.68-1.08c0.22-0.47,0.4-1,0.56-1.59
		c0.15-0.59,0.25-1.23,0.29-1.91l0.85-0.1l0.06,0c-0.02,0.25-0.05,0.53-0.07,0.81s-0.04,0.57-0.05,0.86
		c-0.02,0.29-0.03,0.57-0.04,0.84c-0.01,0.27-0.01,0.53-0.01,0.76c0,0.44,0.03,0.8,0.08,1.07c0.05,0.28,0.12,0.5,0.2,0.66
		c0.08,0.16,0.17,0.27,0.28,0.33c0.1,0.06,0.21,0.09,0.31,0.09c0.06,0,0.12-0.01,0.18-0.02c0.06-0.02,0.12-0.04,0.17-0.06
		c0.05-0.02,0.1-0.05,0.15-0.07c0.04-0.03,0.08-0.05,0.11-0.07l0.13,0.18c-0.08,0.08-0.17,0.16-0.27,0.23
		c-0.1,0.07-0.2,0.13-0.31,0.19c-0.11,0.05-0.23,0.09-0.35,0.12s-0.24,0.04-0.37,0.04c-0.16,0-0.31-0.03-0.45-0.09
		c-0.15-0.06-0.28-0.17-0.39-0.31c-0.11-0.15-0.2-0.34-0.27-0.58c-0.07-0.24-0.1-0.54-0.1-0.9c0-0.12,0-0.23,0.01-0.35
		s0.01-0.24,0.02-0.38c0.01-0.13,0.02-0.27,0.04-0.42c0.02-0.15,0.04-0.32,0.06-0.5l-0.04-0.01c-0.18,0.67-0.38,1.24-0.59,1.7
		c-0.21,0.46-0.43,0.82-0.66,1.1s-0.45,0.48-0.67,0.6c-0.23,0.12-0.44,0.18-0.64,0.18c-0.15,0-0.3-0.03-0.44-0.08
		c-0.14-0.05-0.27-0.14-0.38-0.26c-0.11-0.12-0.2-0.28-0.26-0.47c-0.07-0.2-0.1-0.44-0.1-0.72c0-0.19,0.01-0.41,0.03-0.66
		c0.02-0.25,0.04-0.51,0.07-0.79c0.03-0.28,0.05-0.57,0.07-0.87c0.02-0.3,0.03-0.6,0.03-0.89c0-0.12,0-0.22-0.01-0.31
		c-0.01-0.09-0.03-0.16-0.05-0.21c-0.03-0.06-0.07-0.1-0.12-0.13c-0.05-0.03-0.12-0.04-0.22-0.04s-0.21,0.01-0.36,0.04
		c-0.15,0.03-0.3,0.06-0.46,0.11l-0.06-0.29c0.22-0.08,0.43-0.15,0.61-0.2c0.19-0.06,0.36-0.11,0.51-0.14
		c0.15-0.04,0.28-0.07,0.38-0.08c0.1-0.02,0.18-0.03,0.23-0.03c0.1,0,0.18,0.02,0.24,0.05c0.06,0.04,0.11,0.09,0.15,0.15
		c0.04,0.07,0.06,0.15,0.08,0.24C91.59,446.43,91.6,446.54,91.6,446.66z"/>
	<path fill="#020203" d="M103.99,450.25c0.02,0.2,0.07,0.38,0.16,0.53c0.09,0.15,0.2,0.27,0.33,0.36c0.13,0.09,0.28,0.16,0.44,0.21
		c0.16,0.05,0.32,0.07,0.48,0.07c0.15,0,0.29-0.02,0.43-0.06c0.14-0.04,0.26-0.1,0.36-0.17s0.19-0.17,0.25-0.28
		c0.06-0.11,0.09-0.23,0.09-0.37c0-0.14-0.03-0.27-0.1-0.38c-0.07-0.11-0.16-0.21-0.27-0.29c-0.11-0.09-0.24-0.17-0.39-0.25
		s-0.3-0.15-0.47-0.23c-0.14-0.07-0.29-0.13-0.43-0.2c-0.14-0.07-0.28-0.14-0.42-0.22c-0.13-0.08-0.26-0.17-0.38-0.26
		c-0.12-0.09-0.22-0.2-0.31-0.31c-0.09-0.11-0.16-0.24-0.21-0.38c-0.05-0.14-0.07-0.3-0.07-0.47c0-0.19,0.03-0.36,0.1-0.51
		c0.06-0.16,0.15-0.3,0.26-0.42c0.11-0.13,0.24-0.23,0.39-0.33c0.15-0.09,0.3-0.17,0.47-0.24s0.34-0.11,0.51-0.14
		c0.18-0.03,0.35-0.05,0.51-0.05c0.21,0,0.42,0.02,0.61,0.07c0.19,0.05,0.36,0.12,0.5,0.21c0.14,0.09,0.26,0.2,0.34,0.33
		c0.08,0.13,0.13,0.27,0.13,0.44c0,0.06-0.01,0.13-0.03,0.2s-0.06,0.14-0.11,0.2c-0.05,0.06-0.12,0.12-0.2,0.16
		c-0.08,0.04-0.19,0.07-0.31,0.07c-0.11,0-0.23-0.02-0.35-0.05l-0.01-0.04c0.04-0.09,0.06-0.17,0.08-0.24
		c0.02-0.07,0.02-0.14,0.02-0.2c0-0.12-0.03-0.23-0.09-0.31s-0.14-0.15-0.23-0.21s-0.19-0.09-0.3-0.12s-0.22-0.04-0.33-0.04
		c-0.19,0-0.36,0.03-0.51,0.08s-0.28,0.12-0.38,0.2c-0.1,0.08-0.18,0.18-0.24,0.29c-0.06,0.11-0.08,0.22-0.08,0.33
		c0,0.15,0.04,0.28,0.12,0.4c0.08,0.12,0.18,0.22,0.31,0.32s0.28,0.19,0.45,0.28c0.17,0.09,0.34,0.17,0.53,0.26
		c0.2,0.1,0.41,0.2,0.61,0.3s0.38,0.22,0.54,0.35c0.16,0.13,0.29,0.28,0.38,0.45c0.1,0.17,0.15,0.37,0.15,0.6
		c0,0.28-0.06,0.52-0.18,0.74s-0.29,0.4-0.49,0.54c-0.2,0.15-0.44,0.26-0.7,0.34c-0.26,0.08-0.54,0.11-0.82,0.11
		c-0.14,0-0.29-0.01-0.44-0.03c-0.15-0.02-0.3-0.05-0.44-0.1c-0.14-0.04-0.28-0.1-0.4-0.16c-0.13-0.06-0.24-0.13-0.33-0.22
		c-0.1-0.08-0.17-0.17-0.23-0.27c-0.05-0.1-0.08-0.21-0.08-0.33c0-0.1,0.02-0.19,0.07-0.27c0.04-0.07,0.1-0.13,0.18-0.18
		c0.07-0.05,0.15-0.08,0.24-0.1c0.09-0.02,0.18-0.04,0.28-0.04L103.99,450.25z"/>
	<path fill="#020203" d="M118.86,450.45c0.02,0.01,0.04,0.02,0.06,0.03s0.05,0.03,0.07,0.05c0.02,0.02,0.04,0.04,0.06,0.06
		c0.02,0.02,0.02,0.04,0.02,0.06c0,0.01,0,0.02-0.01,0.03c-0.15,0.21-0.31,0.39-0.49,0.55c-0.17,0.15-0.35,0.28-0.54,0.39
		c-0.19,0.1-0.38,0.18-0.57,0.23s-0.38,0.08-0.57,0.08c-0.32,0-0.62-0.07-0.89-0.2c-0.27-0.13-0.5-0.31-0.69-0.54
		c-0.19-0.23-0.34-0.5-0.45-0.8s-0.16-0.64-0.16-0.99c0-0.29,0.03-0.57,0.09-0.86c0.06-0.29,0.15-0.56,0.27-0.82
		c0.12-0.26,0.27-0.5,0.44-0.73c0.17-0.22,0.37-0.42,0.59-0.58s0.46-0.29,0.72-0.39c0.26-0.09,0.54-0.14,0.84-0.14
		c0.2,0,0.39,0.03,0.57,0.08c0.18,0.05,0.34,0.13,0.47,0.23s0.24,0.23,0.32,0.37c0.08,0.15,0.12,0.32,0.12,0.5
		c0,0.27-0.09,0.51-0.27,0.72c-0.18,0.2-0.43,0.38-0.74,0.52c-0.31,0.14-0.68,0.26-1.11,0.34c-0.43,0.09-0.89,0.15-1.38,0.2v0.07
		c0,0.34,0.04,0.66,0.13,0.94c0.09,0.29,0.21,0.53,0.36,0.73c0.15,0.2,0.33,0.36,0.54,0.47c0.21,0.11,0.43,0.17,0.67,0.17
		c0.24,0,0.49-0.06,0.74-0.18S118.6,450.72,118.86,450.45z M118.11,447.22c0-0.12-0.02-0.24-0.06-0.35c-0.04-0.11-0.1-0.2-0.17-0.28
		c-0.07-0.08-0.16-0.14-0.26-0.19c-0.1-0.04-0.21-0.07-0.33-0.07c-0.17,0-0.33,0.03-0.48,0.09s-0.27,0.15-0.38,0.25
		c-0.11,0.11-0.21,0.23-0.3,0.37c-0.09,0.14-0.16,0.29-0.22,0.45c-0.06,0.16-0.11,0.32-0.15,0.49c-0.04,0.17-0.06,0.33-0.08,0.49
		c0.38-0.03,0.72-0.07,1.03-0.14c0.3-0.07,0.56-0.15,0.77-0.25c0.21-0.1,0.37-0.23,0.48-0.37
		C118.05,447.57,118.11,447.4,118.11,447.22z"/>
	<path fill="#020203" d="M128.12,446.66c0,0.18-0.01,0.38-0.02,0.59c-0.01,0.21-0.03,0.42-0.04,0.63s-0.04,0.43-0.06,0.64
		c-0.02,0.21-0.04,0.42-0.06,0.61c-0.02,0.19-0.03,0.37-0.04,0.53c-0.01,0.16-0.02,0.29-0.02,0.4c0,0.32,0.06,0.55,0.18,0.7
		c0.12,0.15,0.28,0.22,0.48,0.22c0.23,0,0.46-0.12,0.7-0.37c0.24-0.25,0.47-0.61,0.68-1.08s0.4-1,0.56-1.59
		c0.15-0.59,0.25-1.23,0.29-1.91l0.85-0.1l0.06,0c-0.02,0.25-0.05,0.53-0.07,0.81s-0.04,0.57-0.05,0.86
		c-0.02,0.29-0.03,0.57-0.04,0.84c-0.01,0.27-0.01,0.53-0.01,0.76c0,0.44,0.03,0.8,0.08,1.07c0.05,0.28,0.12,0.5,0.2,0.66
		c0.08,0.16,0.17,0.27,0.28,0.33s0.21,0.09,0.31,0.09c0.06,0,0.12-0.01,0.18-0.02c0.06-0.02,0.12-0.04,0.17-0.06
		c0.05-0.02,0.1-0.05,0.15-0.07c0.04-0.03,0.08-0.05,0.12-0.07l0.13,0.18c-0.08,0.08-0.17,0.16-0.27,0.23
		c-0.1,0.07-0.2,0.13-0.31,0.19c-0.11,0.05-0.23,0.09-0.35,0.12s-0.24,0.04-0.37,0.04c-0.16,0-0.31-0.03-0.45-0.09
		c-0.15-0.06-0.28-0.17-0.39-0.31c-0.11-0.15-0.2-0.34-0.27-0.58c-0.07-0.24-0.1-0.54-0.1-0.9c0-0.12,0-0.23,0.01-0.35
		c0.01-0.12,0.01-0.24,0.02-0.38c0.01-0.13,0.02-0.27,0.04-0.42c0.02-0.15,0.04-0.32,0.06-0.5l-0.04-0.01
		c-0.18,0.67-0.38,1.24-0.59,1.7c-0.21,0.46-0.43,0.82-0.66,1.1s-0.45,0.48-0.67,0.6c-0.23,0.12-0.44,0.18-0.64,0.18
		c-0.15,0-0.3-0.03-0.44-0.08c-0.14-0.05-0.27-0.14-0.38-0.26c-0.11-0.12-0.2-0.28-0.26-0.47c-0.07-0.2-0.1-0.44-0.1-0.72
		c0-0.19,0.01-0.41,0.03-0.66c0.02-0.25,0.04-0.51,0.07-0.79c0.03-0.28,0.05-0.57,0.07-0.87c0.02-0.3,0.03-0.6,0.03-0.89
		c0-0.12,0-0.22-0.01-0.31c-0.01-0.09-0.03-0.16-0.05-0.21c-0.03-0.06-0.07-0.1-0.12-0.13c-0.05-0.03-0.12-0.04-0.22-0.04
		c-0.09,0-0.21,0.01-0.36,0.04c-0.15,0.03-0.3,0.06-0.46,0.11l-0.06-0.29c0.22-0.08,0.42-0.15,0.61-0.2s0.36-0.11,0.51-0.14
		c0.15-0.04,0.28-0.07,0.38-0.08c0.1-0.02,0.18-0.03,0.23-0.03c0.1,0,0.18,0.02,0.24,0.05s0.11,0.09,0.15,0.15
		c0.04,0.07,0.06,0.15,0.08,0.24C128.11,446.43,128.12,446.54,128.12,446.66z"/>
	<path fill="#020203" d="M139.41,446.35c0.19-0.07,0.37-0.13,0.55-0.18c0.18-0.05,0.34-0.1,0.49-0.14c0.15-0.04,0.28-0.07,0.39-0.09
		c0.11-0.02,0.2-0.03,0.27-0.03c0.16,0,0.28,0.05,0.36,0.14c0.09,0.09,0.13,0.25,0.13,0.48c0,0.05,0,0.17-0.02,0.34
		c-0.01,0.18-0.03,0.4-0.05,0.66c-0.02,0.27-0.04,0.57-0.07,0.91c-0.03,0.34-0.06,0.7-0.1,1.09l0.02,0c0.19-0.68,0.39-1.25,0.6-1.72
		c0.21-0.46,0.43-0.84,0.65-1.12c0.22-0.28,0.44-0.49,0.67-0.61s0.44-0.18,0.65-0.18c0.19,0,0.34,0.05,0.47,0.14
		c0.13,0.09,0.23,0.21,0.31,0.36c0.08,0.15,0.14,0.31,0.18,0.5c0.04,0.19,0.06,0.38,0.06,0.57c0,0.17-0.01,0.35-0.02,0.54
		s-0.02,0.38-0.04,0.56s-0.03,0.36-0.05,0.52c-0.02,0.17-0.03,0.31-0.05,0.43l0.02,0c0.19-0.69,0.39-1.27,0.6-1.74
		c0.21-0.47,0.43-0.85,0.65-1.13c0.22-0.29,0.44-0.49,0.67-0.61c0.22-0.12,0.44-0.18,0.65-0.18c0.13,0,0.26,0.03,0.39,0.08
		c0.13,0.06,0.24,0.15,0.34,0.27s0.18,0.29,0.24,0.48c0.06,0.2,0.09,0.43,0.09,0.71c0,0.08,0,0.18-0.01,0.32
		c-0.01,0.14-0.02,0.29-0.03,0.45c-0.01,0.17-0.03,0.34-0.05,0.53c-0.02,0.19-0.03,0.37-0.05,0.55c-0.01,0.18-0.03,0.35-0.03,0.51
		c-0.01,0.16-0.01,0.3-0.01,0.42c0,0.21,0.01,0.38,0.03,0.51c0.02,0.13,0.05,0.24,0.09,0.31c0.04,0.08,0.09,0.13,0.16,0.16
		c0.07,0.03,0.15,0.04,0.25,0.04c0.14,0,0.29-0.02,0.44-0.06c0.15-0.04,0.3-0.09,0.46-0.16l0.08,0.21c-0.1,0.08-0.22,0.16-0.37,0.24
		c-0.15,0.08-0.3,0.16-0.46,0.22c-0.16,0.07-0.33,0.12-0.49,0.16c-0.16,0.04-0.3,0.06-0.43,0.06c-0.14,0-0.26-0.04-0.34-0.12
		c-0.08-0.08-0.15-0.18-0.19-0.32c-0.04-0.13-0.07-0.29-0.08-0.47c-0.01-0.18-0.02-0.37-0.02-0.58c0-0.25,0.01-0.51,0.03-0.79
		c0.02-0.27,0.04-0.53,0.06-0.78s0.04-0.47,0.06-0.67s0.03-0.35,0.03-0.45c0-0.29-0.05-0.51-0.16-0.66s-0.24-0.22-0.42-0.22
		c-0.14,0-0.28,0.07-0.44,0.2c-0.16,0.13-0.31,0.31-0.46,0.54s-0.3,0.5-0.45,0.81c-0.14,0.31-0.27,0.65-0.39,1.01
		c-0.12,0.36-0.21,0.74-0.29,1.14c-0.08,0.4-0.13,0.79-0.16,1.19l-0.84,0.1l-0.06,0c0.03-0.56,0.06-1.06,0.08-1.5
		c0.03-0.43,0.05-0.81,0.07-1.14s0.04-0.6,0.05-0.83c0.01-0.23,0.02-0.41,0.02-0.56c0-0.3-0.05-0.53-0.16-0.68s-0.24-0.23-0.4-0.23
		c-0.14,0-0.29,0.06-0.45,0.19c-0.16,0.13-0.31,0.3-0.46,0.53c-0.15,0.23-0.3,0.49-0.44,0.8c-0.14,0.31-0.27,0.64-0.38,1
		s-0.21,0.73-0.29,1.13s-0.13,0.79-0.15,1.19l-0.84,0.1l-0.06,0c0.02-0.25,0.04-0.53,0.06-0.83s0.04-0.61,0.05-0.92
		c0.02-0.31,0.03-0.62,0.04-0.92s0.02-0.59,0.03-0.85c0.01-0.26,0.02-0.5,0.02-0.71c0-0.21,0.01-0.37,0.01-0.5
		c0-0.11-0.01-0.2-0.02-0.28c-0.02-0.08-0.04-0.13-0.07-0.18c-0.03-0.04-0.08-0.08-0.13-0.09s-0.11-0.03-0.18-0.03
		c-0.1,0-0.21,0.01-0.35,0.04c-0.13,0.03-0.29,0.06-0.46,0.11L139.41,446.35z"/>
	<path fill="#020203" d="M166.18,449.38c0-0.27,0.03-0.55,0.08-0.83s0.14-0.55,0.25-0.81c0.11-0.26,0.25-0.51,0.41-0.74
		c0.16-0.23,0.35-0.43,0.56-0.6c0.21-0.17,0.45-0.31,0.71-0.41c0.26-0.1,0.54-0.15,0.85-0.15c0.34,0,0.65,0.07,0.91,0.22
		c0.26,0.15,0.49,0.34,0.67,0.57c0.18,0.24,0.32,0.51,0.41,0.81s0.14,0.61,0.14,0.93c0,0.27-0.03,0.55-0.08,0.83
		c-0.06,0.28-0.14,0.55-0.25,0.81s-0.25,0.51-0.41,0.74c-0.16,0.23-0.35,0.43-0.56,0.6c-0.21,0.17-0.45,0.31-0.71,0.41
		c-0.26,0.1-0.54,0.15-0.85,0.15c-0.34,0-0.65-0.07-0.91-0.22c-0.26-0.15-0.49-0.34-0.67-0.57s-0.31-0.51-0.41-0.81
		C166.23,450.01,166.18,449.7,166.18,449.38z M167.14,449c0,0.18,0.01,0.37,0.04,0.56c0.03,0.19,0.07,0.37,0.13,0.54
		c0.06,0.17,0.13,0.34,0.22,0.49c0.09,0.15,0.19,0.28,0.31,0.4c0.12,0.11,0.25,0.2,0.4,0.27c0.15,0.06,0.31,0.1,0.49,0.1
		c0.2,0,0.37-0.04,0.52-0.13c0.15-0.08,0.28-0.2,0.39-0.34c0.11-0.14,0.2-0.3,0.27-0.48c0.07-0.18,0.13-0.37,0.17-0.56
		c0.04-0.19,0.07-0.38,0.09-0.57c0.02-0.19,0.03-0.36,0.03-0.52c0-0.19-0.01-0.37-0.04-0.56s-0.07-0.37-0.13-0.54
		c-0.06-0.17-0.13-0.33-0.22-0.49c-0.09-0.15-0.19-0.28-0.31-0.39c-0.12-0.11-0.25-0.2-0.4-0.26c-0.15-0.06-0.31-0.1-0.49-0.1
		c-0.2,0-0.37,0.04-0.52,0.13c-0.15,0.08-0.28,0.19-0.39,0.33c-0.11,0.14-0.2,0.3-0.27,0.48s-0.13,0.37-0.17,0.56
		c-0.04,0.19-0.07,0.38-0.09,0.57S167.14,448.84,167.14,449z"/>
	<path fill="#020203" d="M180.44,446.17c0.13,0.01,0.26,0.01,0.39,0.01c0.13,0,0.24,0,0.35,0.01c0.11,0,0.21,0,0.29,0s0.16,0,0.22,0
		c0.12,0,0.24,0,0.35-0.01c0.11-0.01,0.2-0.02,0.28-0.02c0.03,0.1,0.04,0.18,0.04,0.24c0,0.12-0.05,0.2-0.15,0.23
		c-0.1,0.04-0.24,0.06-0.42,0.06s-0.39-0.01-0.62-0.03c-0.23-0.02-0.48-0.04-0.75-0.06c-0.01,0.32-0.02,0.67-0.04,1.04
		c-0.02,0.38-0.04,0.77-0.06,1.17c-0.03,0.4-0.06,0.81-0.09,1.23c-0.04,0.42-0.08,0.82-0.14,1.21c-0.05,0.39-0.12,0.77-0.2,1.13
		s-0.16,0.68-0.26,0.98c-0.16,0.46-0.34,0.84-0.54,1.15c-0.2,0.31-0.41,0.55-0.63,0.74c-0.22,0.19-0.46,0.32-0.7,0.4
		c-0.24,0.08-0.48,0.12-0.72,0.12c-0.21,0-0.4-0.02-0.57-0.07s-0.33-0.11-0.46-0.19s-0.23-0.17-0.3-0.27
		c-0.07-0.1-0.11-0.21-0.11-0.33c0-0.06,0.01-0.13,0.04-0.19c0.03-0.06,0.07-0.12,0.12-0.17c0.05-0.05,0.11-0.09,0.19-0.12
		c0.07-0.03,0.15-0.05,0.23-0.05c0.08,0.14,0.16,0.26,0.26,0.36c0.09,0.1,0.19,0.18,0.3,0.24s0.22,0.11,0.33,0.14
		s0.23,0.04,0.35,0.04c0.31,0,0.57-0.1,0.79-0.3s0.4-0.48,0.54-0.85s0.26-0.81,0.34-1.33c0.08-0.52,0.15-1.1,0.19-1.73
		c0.04-0.63,0.07-1.32,0.09-2.06s0.03-1.51,0.03-2.32c-0.25,0-0.49,0.01-0.7,0.03c-0.21,0.02-0.39,0.05-0.54,0.1
		c-0.01-0.02-0.02-0.05-0.02-0.08c0-0.06,0.03-0.12,0.09-0.18c0.06-0.05,0.15-0.1,0.26-0.15s0.25-0.08,0.4-0.1
		c0.16-0.03,0.33-0.04,0.52-0.05c0.01-0.25,0.02-0.49,0.04-0.72c0.02-0.23,0.04-0.46,0.06-0.68c0.03-0.22,0.06-0.45,0.09-0.67
		c0.04-0.23,0.08-0.46,0.14-0.7c0.07-0.31,0.17-0.6,0.28-0.85c0.12-0.25,0.25-0.47,0.39-0.67c0.15-0.2,0.3-0.36,0.48-0.5
		s0.35-0.25,0.53-0.34c0.18-0.09,0.36-0.16,0.55-0.2c0.19-0.04,0.37-0.06,0.54-0.06c0.26,0,0.49,0.03,0.7,0.1
		c0.2,0.07,0.37,0.16,0.52,0.27c0.14,0.11,0.25,0.24,0.32,0.38c0.07,0.14,0.11,0.28,0.11,0.43c0,0.11-0.02,0.21-0.05,0.3
		c-0.04,0.09-0.09,0.16-0.15,0.22s-0.14,0.11-0.22,0.14s-0.17,0.05-0.27,0.05c-0.12,0-0.25-0.03-0.39-0.09l-0.02-0.04
		c0.05-0.12,0.09-0.22,0.12-0.31s0.04-0.18,0.04-0.27c0-0.13-0.03-0.24-0.08-0.33c-0.05-0.09-0.12-0.17-0.21-0.23
		c-0.08-0.06-0.18-0.1-0.28-0.13c-0.1-0.03-0.21-0.04-0.31-0.04c-0.3,0-0.56,0.07-0.76,0.2c-0.21,0.13-0.38,0.32-0.52,0.55
		c-0.14,0.24-0.25,0.51-0.33,0.83c-0.08,0.32-0.14,0.66-0.18,1.03c-0.04,0.37-0.07,0.75-0.09,1.15
		C180.47,445.37,180.45,445.77,180.44,446.17z"/>
	<path fill="#020203" d="M199.74,443.71c0-0.13-0.01-0.23-0.03-0.32s-0.05-0.16-0.1-0.22c-0.05-0.06-0.12-0.1-0.2-0.12
		c-0.08-0.03-0.19-0.04-0.33-0.04c-0.18,0-0.4,0.02-0.68,0.06l-0.04-0.33c0.39-0.1,0.72-0.17,0.99-0.22s0.5-0.08,0.68-0.08
		c0.18,0,0.32,0.02,0.42,0.07c0.1,0.05,0.18,0.12,0.23,0.21s0.08,0.21,0.09,0.34c0.01,0.13,0.02,0.29,0.02,0.46
		c0,0.05,0,0.15-0.01,0.31c0,0.16-0.01,0.36-0.02,0.61c-0.01,0.25-0.02,0.54-0.03,0.86c-0.01,0.33-0.02,0.68-0.03,1.07
		c-0.01,0.39-0.02,0.79-0.04,1.22c-0.01,0.43-0.03,0.87-0.04,1.33c-0.01,0.46-0.03,0.92-0.04,1.39c-0.01,0.47-0.03,0.93-0.04,1.39
		l-0.96,0.12l-0.07-0.01c0.03-0.77,0.06-1.51,0.09-2.21c0.03-0.7,0.05-1.37,0.07-2.03c0.02-0.66,0.03-1.3,0.04-1.94
		C199.74,445,199.74,444.36,199.74,443.71z M201.71,446.6c0.34,0.58,0.64,1.08,0.92,1.51c0.27,0.43,0.52,0.8,0.75,1.12
		c0.22,0.32,0.43,0.58,0.61,0.8s0.35,0.4,0.51,0.56c0.11,0.11,0.22,0.21,0.32,0.29s0.19,0.14,0.28,0.19
		c0.09,0.05,0.18,0.09,0.27,0.11s0.17,0.03,0.27,0.03c0.11,0,0.22-0.01,0.34-0.04c0.12-0.03,0.25-0.06,0.4-0.11l0.11,0.33
		c-0.19,0.08-0.37,0.15-0.53,0.21c-0.16,0.06-0.31,0.11-0.44,0.15c-0.13,0.04-0.25,0.07-0.37,0.09c-0.11,0.02-0.21,0.03-0.31,0.03
		c-0.09,0-0.18-0.01-0.26-0.03s-0.16-0.05-0.24-0.09c-0.08-0.04-0.16-0.09-0.24-0.16c-0.08-0.06-0.17-0.14-0.25-0.22
		c-0.15-0.14-0.32-0.32-0.51-0.55c-0.19-0.23-0.42-0.52-0.66-0.88c-0.25-0.35-0.52-0.76-0.82-1.24s-0.63-1.03-0.99-1.66l0-0.05
		l0.3-0.42c0.44-0.62,0.84-1.19,1.22-1.71c0.37-0.51,0.72-0.96,1.05-1.32c0.33-0.37,0.64-0.65,0.94-0.85s0.59-0.3,0.88-0.3
		c0.12,0,0.23,0.02,0.32,0.05c0.09,0.03,0.17,0.08,0.23,0.14c0.06,0.06,0.1,0.12,0.13,0.2s0.04,0.15,0.04,0.24
		c0,0.13-0.03,0.26-0.09,0.39s-0.15,0.24-0.27,0.33h-0.03c-0.1-0.11-0.21-0.19-0.32-0.23s-0.22-0.06-0.33-0.06
		c-0.22,0-0.45,0.08-0.7,0.26s-0.51,0.4-0.78,0.69s-0.55,0.63-0.85,1.01C202.32,445.77,202.02,446.17,201.71,446.6z"/>
	<path fill="#020203" d="M213,449.38c0-0.27,0.03-0.55,0.08-0.83s0.14-0.55,0.25-0.81c0.11-0.26,0.25-0.51,0.41-0.74
		c0.16-0.23,0.35-0.43,0.56-0.6c0.21-0.17,0.45-0.31,0.71-0.41c0.26-0.1,0.54-0.15,0.85-0.15c0.34,0,0.65,0.07,0.91,0.22
		c0.26,0.15,0.49,0.34,0.67,0.57c0.18,0.24,0.32,0.51,0.41,0.81s0.14,0.61,0.14,0.93c0,0.27-0.03,0.55-0.08,0.83
		c-0.06,0.28-0.14,0.55-0.25,0.81s-0.25,0.51-0.41,0.74c-0.16,0.23-0.35,0.43-0.56,0.6c-0.21,0.17-0.45,0.31-0.71,0.41
		c-0.26,0.1-0.54,0.15-0.85,0.15c-0.34,0-0.65-0.07-0.91-0.22c-0.26-0.15-0.49-0.34-0.67-0.57s-0.31-0.51-0.41-0.81
		C213.04,450.01,213,449.7,213,449.38z M213.96,449c0,0.18,0.01,0.37,0.04,0.56c0.03,0.19,0.07,0.37,0.13,0.54
		c0.06,0.17,0.13,0.34,0.22,0.49c0.09,0.15,0.19,0.28,0.31,0.4c0.12,0.11,0.25,0.2,0.4,0.27c0.15,0.06,0.31,0.1,0.49,0.1
		c0.2,0,0.37-0.04,0.52-0.13c0.15-0.08,0.28-0.2,0.39-0.34c0.11-0.14,0.2-0.3,0.27-0.48c0.07-0.18,0.13-0.37,0.17-0.56
		c0.04-0.19,0.07-0.38,0.09-0.57c0.02-0.19,0.03-0.36,0.03-0.52c0-0.19-0.01-0.37-0.04-0.56s-0.07-0.37-0.13-0.54
		c-0.06-0.17-0.13-0.33-0.22-0.49c-0.09-0.15-0.19-0.28-0.31-0.39c-0.12-0.11-0.25-0.2-0.4-0.26c-0.15-0.06-0.31-0.1-0.49-0.1
		c-0.2,0-0.37,0.04-0.52,0.13c-0.15,0.08-0.28,0.19-0.39,0.33c-0.11,0.14-0.2,0.3-0.27,0.48s-0.13,0.37-0.17,0.56
		c-0.04,0.19-0.07,0.38-0.09,0.57S213.96,448.84,213.96,449z"/>
	<path fill="#020203" d="M226.1,451.8l-0.06,0c0.02-0.25,0.04-0.53,0.06-0.83s0.04-0.61,0.05-0.92c0.02-0.31,0.03-0.62,0.04-0.92
		s0.02-0.59,0.03-0.85c0.01-0.26,0.02-0.5,0.02-0.71c0-0.21,0.01-0.37,0.01-0.5c0-0.1,0-0.19-0.01-0.26
		c-0.01-0.07-0.03-0.13-0.05-0.18c-0.03-0.05-0.07-0.08-0.12-0.11s-0.13-0.03-0.22-0.03c-0.05,0-0.09,0-0.14,0.01
		c-0.05,0.01-0.1,0.01-0.16,0.02c-0.06,0.01-0.13,0.02-0.2,0.04c-0.07,0.02-0.16,0.04-0.26,0.06l-0.06-0.29
		c0.45-0.16,0.81-0.27,1.08-0.34c0.28-0.07,0.46-0.1,0.56-0.1c0.18,0,0.3,0.05,0.38,0.15c0.08,0.1,0.11,0.26,0.11,0.46
		c0,0.02,0,0.07-0.01,0.17c-0.01,0.09-0.01,0.21-0.02,0.36c-0.01,0.15-0.02,0.32-0.03,0.51s-0.03,0.4-0.05,0.62
		s-0.04,0.45-0.06,0.69c-0.02,0.24-0.04,0.48-0.07,0.72l0.04,0c0.13-0.53,0.27-1.02,0.44-1.47c0.16-0.46,0.34-0.85,0.55-1.19
		c0.2-0.34,0.43-0.6,0.67-0.79c0.24-0.19,0.51-0.29,0.8-0.29c0.1,0,0.2,0.02,0.29,0.05s0.17,0.08,0.23,0.13s0.12,0.13,0.15,0.21
		c0.04,0.08,0.06,0.17,0.06,0.26c0,0.12-0.03,0.24-0.08,0.35c-0.05,0.11-0.13,0.21-0.25,0.3h-0.03c-0.11-0.09-0.22-0.16-0.32-0.2
		c-0.1-0.04-0.21-0.06-0.32-0.06c-0.12,0-0.24,0.02-0.35,0.07c-0.11,0.05-0.22,0.11-0.31,0.2c-0.15,0.14-0.29,0.32-0.43,0.55
		s-0.25,0.48-0.36,0.76c-0.11,0.28-0.21,0.57-0.29,0.88c-0.09,0.31-0.16,0.61-0.23,0.9c-0.06,0.29-0.11,0.57-0.15,0.82
		c-0.04,0.26-0.07,0.47-0.08,0.65L226.1,451.8z"/>
	<path fill="#020203" d="M240.89,450.45c0.02,0.01,0.04,0.02,0.06,0.03s0.05,0.03,0.07,0.05c0.02,0.02,0.04,0.04,0.06,0.06
		c0.02,0.02,0.02,0.04,0.02,0.06c0,0.01,0,0.02-0.01,0.03c-0.15,0.21-0.31,0.39-0.49,0.55c-0.17,0.15-0.35,0.28-0.54,0.39
		c-0.19,0.1-0.38,0.18-0.57,0.23s-0.38,0.08-0.57,0.08c-0.32,0-0.62-0.07-0.89-0.2c-0.27-0.13-0.5-0.31-0.69-0.54
		c-0.19-0.23-0.34-0.5-0.45-0.8s-0.16-0.64-0.16-0.99c0-0.29,0.03-0.57,0.09-0.86c0.06-0.29,0.15-0.56,0.27-0.82
		c0.12-0.26,0.27-0.5,0.44-0.73c0.17-0.22,0.37-0.42,0.59-0.58s0.46-0.29,0.72-0.39c0.26-0.09,0.54-0.14,0.84-0.14
		c0.2,0,0.39,0.03,0.57,0.08c0.18,0.05,0.34,0.13,0.47,0.23s0.24,0.23,0.32,0.37c0.08,0.15,0.12,0.32,0.12,0.5
		c0,0.27-0.09,0.51-0.27,0.72c-0.18,0.2-0.43,0.38-0.74,0.52c-0.31,0.14-0.68,0.26-1.11,0.34c-0.43,0.09-0.89,0.15-1.38,0.2v0.07
		c0,0.34,0.04,0.66,0.13,0.94c0.09,0.29,0.21,0.53,0.36,0.73c0.15,0.2,0.33,0.36,0.54,0.47c0.21,0.11,0.43,0.17,0.67,0.17
		c0.24,0,0.49-0.06,0.74-0.18S240.62,450.72,240.89,450.45z M240.13,447.22c0-0.12-0.02-0.24-0.06-0.35
		c-0.04-0.11-0.1-0.2-0.17-0.28c-0.07-0.08-0.16-0.14-0.26-0.19c-0.1-0.04-0.21-0.07-0.33-0.07c-0.17,0-0.33,0.03-0.48,0.09
		s-0.27,0.15-0.38,0.25c-0.11,0.11-0.21,0.23-0.3,0.37c-0.09,0.14-0.16,0.29-0.22,0.45c-0.06,0.16-0.11,0.32-0.15,0.49
		c-0.04,0.17-0.06,0.33-0.08,0.49c0.38-0.03,0.72-0.07,1.03-0.14c0.3-0.07,0.56-0.15,0.77-0.25c0.21-0.1,0.37-0.23,0.48-0.37
		C240.07,447.57,240.13,447.4,240.13,447.22z"/>
	<path fill="#020203" d="M251.85,447.56c0-0.21-0.04-0.4-0.1-0.55c-0.07-0.16-0.16-0.28-0.27-0.38c-0.11-0.1-0.24-0.17-0.38-0.22
		c-0.14-0.05-0.28-0.07-0.43-0.07c-0.19,0-0.35,0.02-0.48,0.06s-0.24,0.1-0.32,0.17c-0.08,0.07-0.14,0.15-0.18,0.25
		c-0.04,0.09-0.05,0.2-0.05,0.31c0,0.13,0.02,0.26,0.07,0.39c0.05,0.13,0.12,0.26,0.21,0.38l-0.02,0.04
		c-0.15,0.08-0.31,0.11-0.46,0.11c-0.09,0-0.18-0.01-0.26-0.04s-0.15-0.07-0.21-0.12s-0.1-0.12-0.14-0.2s-0.05-0.17-0.05-0.26
		c0-0.16,0.04-0.31,0.12-0.45s0.18-0.27,0.3-0.38c0.13-0.12,0.27-0.22,0.44-0.31c0.17-0.09,0.34-0.17,0.52-0.23
		c0.18-0.06,0.36-0.11,0.53-0.14c0.18-0.03,0.34-0.05,0.5-0.05c0.28,0,0.52,0.04,0.72,0.11c0.2,0.08,0.36,0.18,0.49,0.33
		s0.22,0.32,0.27,0.52s0.09,0.44,0.09,0.69c0,0.18-0.01,0.37-0.02,0.58c-0.01,0.21-0.03,0.43-0.05,0.67
		c-0.02,0.23-0.04,0.47-0.05,0.72s-0.02,0.49-0.02,0.74c0,0.39,0.07,0.68,0.22,0.87c0.14,0.19,0.33,0.29,0.57,0.29
		c0.21,0,0.44-0.08,0.69-0.23l0.12,0.17c-0.18,0.18-0.38,0.32-0.59,0.41c-0.21,0.09-0.43,0.14-0.67,0.14
		c-0.17,0-0.34-0.03-0.48-0.09c-0.15-0.06-0.28-0.15-0.38-0.26s-0.19-0.26-0.25-0.44c-0.06-0.18-0.09-0.38-0.09-0.62
		c0-0.07,0-0.14,0.01-0.21c0-0.07,0.01-0.14,0.03-0.22h-0.02c-0.12,0.23-0.25,0.46-0.4,0.68c-0.15,0.22-0.32,0.42-0.5,0.6
		c-0.18,0.18-0.38,0.32-0.58,0.43c-0.21,0.11-0.42,0.16-0.65,0.16c-0.19,0-0.35-0.03-0.51-0.1s-0.28-0.15-0.39-0.27
		c-0.11-0.11-0.19-0.25-0.25-0.4s-0.09-0.32-0.09-0.5c0-0.24,0.04-0.45,0.13-0.64s0.21-0.37,0.36-0.52c0.15-0.15,0.34-0.29,0.55-0.4
		s0.45-0.2,0.7-0.28c0.25-0.07,0.52-0.13,0.8-0.17c0.28-0.04,0.57-0.05,0.86-0.05c0.02-0.17,0.03-0.33,0.05-0.49
		C251.85,447.92,251.85,447.75,251.85,447.56z M249.38,450.33c0,0.1,0.01,0.21,0.03,0.3c0.02,0.1,0.06,0.18,0.11,0.25
		c0.05,0.07,0.11,0.13,0.19,0.17c0.08,0.04,0.17,0.06,0.28,0.06c0.12,0,0.25-0.03,0.38-0.08s0.26-0.13,0.38-0.23
		c0.13-0.1,0.25-0.22,0.36-0.36c0.11-0.14,0.22-0.29,0.31-0.45c0.09-0.16,0.17-0.34,0.23-0.52c0.06-0.18,0.1-0.37,0.12-0.56
		c-0.2,0.01-0.4,0.02-0.59,0.04c-0.2,0.02-0.38,0.05-0.56,0.09s-0.34,0.1-0.49,0.17c-0.15,0.07-0.28,0.16-0.39,0.26
		c-0.11,0.1-0.19,0.23-0.26,0.37S249.38,450.14,249.38,450.33z"/>
	<path fill="#020203" d="M261.74,447.07c0-0.11-0.01-0.2-0.02-0.28c-0.02-0.08-0.04-0.13-0.07-0.18c-0.03-0.04-0.08-0.08-0.13-0.09
		s-0.11-0.03-0.18-0.03c-0.1,0-0.21,0.01-0.35,0.04c-0.13,0.03-0.29,0.06-0.46,0.11l-0.06-0.29c0.19-0.07,0.37-0.13,0.55-0.18
		c0.18-0.05,0.34-0.1,0.49-0.14c0.15-0.04,0.28-0.07,0.39-0.09c0.11-0.02,0.2-0.03,0.27-0.03c0.16,0,0.28,0.05,0.36,0.14
		c0.09,0.09,0.13,0.25,0.13,0.48c0,0.03,0,0.09-0.01,0.19c-0.01,0.1-0.01,0.22-0.02,0.37c-0.01,0.15-0.02,0.32-0.03,0.52
		c-0.01,0.2-0.03,0.4-0.05,0.62c-0.02,0.22-0.04,0.45-0.06,0.68c-0.02,0.23-0.04,0.47-0.07,0.7l0.02,0c0.2-0.69,0.42-1.28,0.66-1.75
		s0.47-0.86,0.71-1.16c0.24-0.3,0.48-0.51,0.72-0.64c0.24-0.13,0.47-0.2,0.68-0.2c0.15,0,0.29,0.03,0.43,0.08s0.26,0.15,0.37,0.27
		c0.11,0.12,0.2,0.28,0.26,0.48s0.1,0.43,0.1,0.71c0,0.08,0,0.19-0.01,0.32c-0.01,0.14-0.02,0.29-0.03,0.45
		c-0.01,0.17-0.03,0.34-0.05,0.53c-0.02,0.19-0.03,0.37-0.05,0.55c-0.01,0.18-0.02,0.35-0.03,0.51c-0.01,0.16-0.01,0.3-0.01,0.43
		c0,0.21,0.01,0.38,0.03,0.51c0.02,0.13,0.05,0.24,0.09,0.31c0.04,0.08,0.09,0.13,0.16,0.16c0.07,0.03,0.15,0.04,0.25,0.04
		c0.14,0,0.29-0.02,0.44-0.06c0.15-0.04,0.3-0.09,0.46-0.16l0.08,0.21c-0.1,0.08-0.22,0.16-0.37,0.24c-0.15,0.08-0.3,0.16-0.47,0.22
		c-0.16,0.07-0.32,0.12-0.49,0.16c-0.16,0.04-0.3,0.06-0.43,0.06c-0.15,0-0.26-0.04-0.34-0.12c-0.08-0.08-0.15-0.18-0.19-0.32
		c-0.04-0.13-0.07-0.29-0.08-0.47s-0.02-0.37-0.02-0.58c0-0.25,0.01-0.51,0.03-0.78s0.04-0.52,0.06-0.76
		c0.02-0.24,0.04-0.46,0.06-0.66s0.03-0.36,0.03-0.47c0-0.31-0.06-0.55-0.18-0.69c-0.12-0.15-0.28-0.22-0.47-0.22
		c-0.16,0-0.32,0.07-0.49,0.2s-0.34,0.31-0.51,0.54c-0.17,0.23-0.33,0.5-0.49,0.81c-0.16,0.31-0.3,0.65-0.42,1.01
		c-0.13,0.36-0.23,0.75-0.31,1.14s-0.14,0.79-0.16,1.19l-0.84,0.1l-0.06,0c0.02-0.25,0.04-0.53,0.06-0.83s0.04-0.61,0.05-0.92
		c0.02-0.31,0.03-0.62,0.04-0.92s0.02-0.59,0.03-0.85c0.01-0.26,0.02-0.5,0.02-0.71C261.74,447.35,261.74,447.19,261.74,447.07z"/>
	<path fill="#020203" d="M294.51,451.4c-0.19,0.08-0.37,0.15-0.53,0.21c-0.16,0.06-0.31,0.11-0.45,0.15s-0.27,0.07-0.39,0.09
		c-0.12,0.02-0.24,0.03-0.35,0.03c-0.15,0-0.29-0.03-0.4-0.09s-0.21-0.15-0.29-0.28s-0.13-0.3-0.17-0.52
		c-0.04-0.21-0.06-0.48-0.06-0.8v-0.35c0-0.17,0-0.36,0-0.58s0-0.45,0.01-0.7c0-0.25,0.01-0.5,0.01-0.75c0-0.25,0.01-0.5,0.01-0.74
		c0-0.24,0.01-0.46,0.02-0.67c0.01-0.21,0.01-0.38,0.02-0.53c0.01-0.31,0.03-0.63,0.05-0.94c0.02-0.31,0.04-0.62,0.07-0.92
		l-0.03-0.01c-0.05,0.12-0.1,0.26-0.17,0.41s-0.15,0.34-0.25,0.56c-0.24,0.52-0.48,1.06-0.72,1.62c-0.25,0.56-0.49,1.13-0.75,1.71
		c-0.25,0.58-0.5,1.17-0.76,1.77c-0.26,0.6-0.51,1.19-0.76,1.79l-0.2-0.01c-0.06-0.18-0.13-0.4-0.21-0.65
		c-0.08-0.25-0.17-0.52-0.27-0.81c-0.1-0.29-0.2-0.59-0.31-0.92c-0.11-0.32-0.22-0.65-0.33-0.97c-0.11-0.33-0.23-0.66-0.34-0.99
		c-0.11-0.33-0.22-0.64-0.33-0.95c-0.11-0.3-0.21-0.59-0.3-0.86c-0.09-0.27-0.18-0.5-0.26-0.71c-0.09-0.24-0.16-0.46-0.22-0.65
		c-0.06-0.19-0.12-0.35-0.16-0.5l-0.03,0.01c0,0.08,0,0.16,0,0.24c0,0.08,0,0.17,0,0.26v0.67c0,0.43-0.01,0.86-0.02,1.31
		c-0.01,0.44-0.03,0.88-0.05,1.31c-0.02,0.43-0.05,0.85-0.08,1.25c-0.03,0.4-0.06,0.78-0.09,1.12c-0.03,0.28-0.05,0.52-0.07,0.72
		c-0.02,0.2-0.05,0.36-0.08,0.5c-0.03,0.13-0.06,0.24-0.1,0.32c-0.04,0.08-0.09,0.14-0.15,0.18c-0.06,0.04-0.13,0.07-0.22,0.08
		c-0.09,0.01-0.19,0.02-0.31,0.02h-0.12c-0.02,0-0.05,0-0.09,0c-0.04,0-0.08,0-0.13-0.01l-0.06-0.04c0.13-0.26,0.24-0.55,0.34-0.87
		c0.1-0.32,0.18-0.66,0.26-1.02c0.07-0.36,0.14-0.73,0.19-1.12c0.05-0.39,0.1-0.77,0.13-1.15s0.07-0.76,0.09-1.14
		c0.02-0.37,0.04-0.73,0.05-1.06c0.01-0.34,0.02-0.65,0.02-0.93c0-0.29,0.01-0.53,0.01-0.75c0-0.14-0.01-0.25-0.03-0.34
		c-0.02-0.09-0.05-0.16-0.1-0.21c-0.05-0.05-0.11-0.09-0.19-0.11c-0.08-0.02-0.19-0.03-0.32-0.03c-0.09,0-0.19,0.01-0.31,0.02
		c-0.12,0.01-0.24,0.03-0.38,0.05l-0.04-0.35c0.49-0.11,0.9-0.2,1.21-0.25c0.32-0.06,0.57-0.08,0.76-0.08c0.1,0,0.18,0.01,0.25,0.03
		c0.07,0.02,0.13,0.05,0.18,0.09c0.05,0.04,0.1,0.1,0.14,0.17s0.08,0.15,0.12,0.26c0.14,0.4,0.29,0.82,0.45,1.27
		c0.16,0.45,0.32,0.91,0.49,1.37c0.17,0.47,0.33,0.93,0.5,1.4s0.32,0.92,0.48,1.36c0.06,0.17,0.11,0.33,0.16,0.48
		s0.09,0.28,0.14,0.4s0.08,0.24,0.12,0.35c0.04,0.11,0.07,0.22,0.1,0.33h0.03c0.04-0.12,0.09-0.23,0.13-0.34s0.09-0.23,0.14-0.35
		c0.05-0.12,0.11-0.25,0.17-0.38c0.06-0.14,0.13-0.29,0.2-0.46c0.19-0.43,0.38-0.88,0.59-1.34s0.41-0.93,0.62-1.42
		c0.21-0.48,0.43-0.97,0.65-1.47c0.22-0.5,0.44-1,0.66-1.49c0.02-0.05,0.06-0.1,0.1-0.13c0.04-0.04,0.09-0.06,0.14-0.08
		c0.05-0.02,0.1-0.03,0.15-0.04s0.1-0.01,0.15-0.01c0.08,0,0.16,0.01,0.26,0.03c0.09,0.02,0.18,0.05,0.27,0.09
		c-0.04,0.44-0.08,0.86-0.11,1.26c-0.03,0.4-0.06,0.79-0.08,1.18c-0.02,0.38-0.04,0.76-0.06,1.13c-0.02,0.37-0.03,0.75-0.04,1.13
		c-0.01,0.38-0.01,0.77-0.02,1.16s-0.01,0.81-0.01,1.24c0,0.29,0.01,0.53,0.04,0.73s0.07,0.37,0.13,0.49s0.14,0.22,0.24,0.28
		c0.1,0.06,0.23,0.09,0.38,0.09c0.06,0,0.11,0,0.16,0c0.05,0,0.11-0.01,0.16-0.02c0.06-0.01,0.12-0.02,0.19-0.04
		c0.07-0.02,0.15-0.04,0.24-0.07L294.51,451.4z"/>
	<path fill="#020203" d="M301.33,449.38c0-0.27,0.03-0.55,0.08-0.83s0.14-0.55,0.25-0.81c0.11-0.26,0.25-0.51,0.41-0.74
		c0.16-0.23,0.35-0.43,0.56-0.6c0.21-0.17,0.45-0.31,0.71-0.41c0.26-0.1,0.54-0.15,0.85-0.15c0.34,0,0.65,0.07,0.91,0.22
		c0.26,0.15,0.49,0.34,0.67,0.57c0.18,0.24,0.32,0.51,0.41,0.81s0.14,0.61,0.14,0.93c0,0.27-0.03,0.55-0.08,0.83
		c-0.06,0.28-0.14,0.55-0.25,0.81s-0.25,0.51-0.41,0.74c-0.16,0.23-0.35,0.43-0.56,0.6c-0.21,0.17-0.45,0.31-0.71,0.41
		c-0.26,0.1-0.54,0.15-0.85,0.15c-0.34,0-0.65-0.07-0.91-0.22c-0.26-0.15-0.49-0.34-0.67-0.57s-0.31-0.51-0.41-0.81
		C301.38,450.01,301.33,449.7,301.33,449.38z M302.29,449c0,0.18,0.01,0.37,0.04,0.56c0.03,0.19,0.07,0.37,0.13,0.54
		c0.06,0.17,0.13,0.34,0.22,0.49c0.09,0.15,0.19,0.28,0.31,0.4c0.12,0.11,0.25,0.2,0.4,0.27c0.15,0.06,0.31,0.1,0.49,0.1
		c0.2,0,0.37-0.04,0.52-0.13c0.15-0.08,0.28-0.2,0.39-0.34c0.11-0.14,0.2-0.3,0.27-0.48c0.07-0.18,0.13-0.37,0.17-0.56
		c0.04-0.19,0.07-0.38,0.09-0.57c0.02-0.19,0.03-0.36,0.03-0.52c0-0.19-0.01-0.37-0.04-0.56s-0.07-0.37-0.13-0.54
		c-0.06-0.17-0.13-0.33-0.22-0.49c-0.09-0.15-0.19-0.28-0.31-0.39c-0.12-0.11-0.25-0.2-0.4-0.26c-0.15-0.06-0.31-0.1-0.49-0.1
		c-0.2,0-0.37,0.04-0.52,0.13c-0.15,0.08-0.28,0.19-0.39,0.33c-0.11,0.14-0.2,0.3-0.27,0.48s-0.13,0.37-0.17,0.56
		c-0.04,0.19-0.07,0.38-0.09,0.57S302.29,448.84,302.29,449z"/>
	<path fill="#020203" d="M319.59,440.89c-0.1,0.68-0.19,1.38-0.28,2.09c-0.09,0.71-0.17,1.43-0.23,2.14s-0.12,1.41-0.16,2.09
		s-0.06,1.35-0.06,1.98c0,0.3,0,0.56,0.01,0.78s0.02,0.4,0.03,0.55s0.04,0.27,0.06,0.36c0.03,0.09,0.06,0.16,0.1,0.21
		c0.04,0.05,0.08,0.08,0.13,0.09c0.05,0.01,0.11,0.02,0.18,0.02c0.13,0,0.27-0.02,0.42-0.06c0.15-0.04,0.3-0.09,0.45-0.16l0.08,0.21
		c-0.1,0.08-0.22,0.16-0.36,0.24c-0.15,0.08-0.3,0.16-0.46,0.22c-0.16,0.07-0.32,0.12-0.47,0.16c-0.15,0.04-0.29,0.06-0.4,0.06
		c-0.08,0-0.16-0.01-0.22-0.03c-0.06-0.02-0.12-0.05-0.16-0.1s-0.08-0.11-0.11-0.19c-0.03-0.08-0.06-0.18-0.07-0.3
		c-0.02-0.16-0.04-0.35-0.06-0.56s-0.02-0.45-0.02-0.7c0-0.27,0.01-0.54,0.03-0.82c0.02-0.28,0.05-0.56,0.1-0.83l-0.04-0.01
		c-0.21,0.54-0.43,1.04-0.67,1.48c-0.24,0.44-0.49,0.82-0.75,1.13s-0.52,0.55-0.78,0.72s-0.51,0.25-0.75,0.25
		c-0.24,0-0.45-0.06-0.63-0.18c-0.17-0.12-0.32-0.28-0.43-0.48s-0.19-0.43-0.25-0.69c-0.05-0.26-0.08-0.53-0.08-0.8
		c0-0.33,0.04-0.66,0.11-0.98c0.07-0.32,0.18-0.63,0.31-0.91s0.3-0.55,0.49-0.8c0.19-0.25,0.4-0.46,0.64-0.63
		c0.24-0.18,0.49-0.32,0.77-0.42c0.28-0.1,0.56-0.15,0.87-0.15c0.21,0,0.42,0.03,0.63,0.08c0.21,0.05,0.42,0.14,0.63,0.27
		c0.01-0.46,0.03-0.92,0.05-1.39c0.02-0.47,0.04-0.93,0.07-1.38c0.03-0.45,0.06-0.87,0.09-1.26s0.07-0.75,0.1-1.06
		c0.01-0.06,0.03-0.12,0.06-0.17s0.08-0.08,0.13-0.11s0.11-0.05,0.18-0.06c0.07-0.01,0.13-0.02,0.21-0.02
		C319.25,440.76,319.41,440.8,319.59,440.89z M318.15,446.56c-0.36-0.17-0.72-0.26-1.08-0.26c-0.26,0-0.5,0.04-0.72,0.13
		c-0.22,0.08-0.42,0.2-0.59,0.34c-0.17,0.15-0.33,0.32-0.46,0.52c-0.13,0.2-0.24,0.41-0.33,0.64c-0.09,0.23-0.15,0.46-0.2,0.71
		c-0.04,0.24-0.07,0.49-0.07,0.73c0,0.09,0,0.18,0.01,0.3c0.01,0.11,0.02,0.23,0.05,0.35c0.02,0.12,0.05,0.24,0.09,0.35
		c0.04,0.11,0.08,0.22,0.14,0.31c0.06,0.09,0.12,0.16,0.2,0.22c0.08,0.06,0.17,0.08,0.28,0.08c0.19,0,0.39-0.07,0.59-0.22
		c0.2-0.14,0.4-0.34,0.59-0.58c0.19-0.24,0.37-0.51,0.54-0.82c0.17-0.31,0.32-0.63,0.46-0.95s0.24-0.65,0.33-0.97
		S318.13,446.82,318.15,446.56z"/>
	<path fill="#020203" d="M331.41,450.45c0.02,0.01,0.04,0.02,0.06,0.03s0.05,0.03,0.07,0.05c0.02,0.02,0.04,0.04,0.06,0.06
		c0.02,0.02,0.02,0.04,0.02,0.06c0,0.01,0,0.02-0.01,0.03c-0.15,0.21-0.31,0.39-0.49,0.55c-0.17,0.15-0.35,0.28-0.54,0.39
		c-0.19,0.1-0.38,0.18-0.57,0.23s-0.38,0.08-0.57,0.08c-0.32,0-0.62-0.07-0.89-0.2c-0.27-0.13-0.5-0.31-0.69-0.54
		c-0.19-0.23-0.34-0.5-0.45-0.8s-0.16-0.64-0.16-0.99c0-0.29,0.03-0.57,0.09-0.86c0.06-0.29,0.15-0.56,0.27-0.82
		c0.12-0.26,0.27-0.5,0.44-0.73c0.17-0.22,0.37-0.42,0.59-0.58s0.46-0.29,0.72-0.39c0.26-0.09,0.54-0.14,0.84-0.14
		c0.2,0,0.39,0.03,0.57,0.08c0.18,0.05,0.34,0.13,0.47,0.23s0.24,0.23,0.32,0.37c0.08,0.15,0.12,0.32,0.12,0.5
		c0,0.27-0.09,0.51-0.27,0.72c-0.18,0.2-0.43,0.38-0.74,0.52c-0.31,0.14-0.68,0.26-1.11,0.34c-0.43,0.09-0.89,0.15-1.38,0.2v0.07
		c0,0.34,0.04,0.66,0.13,0.94c0.09,0.29,0.21,0.53,0.36,0.73c0.15,0.2,0.33,0.36,0.54,0.47c0.21,0.11,0.43,0.17,0.67,0.17
		c0.24,0,0.49-0.06,0.74-0.18S331.15,450.72,331.41,450.45z M330.65,447.22c0-0.12-0.02-0.24-0.06-0.35
		c-0.04-0.11-0.1-0.2-0.17-0.28c-0.07-0.08-0.16-0.14-0.26-0.19c-0.1-0.04-0.21-0.07-0.33-0.07c-0.17,0-0.33,0.03-0.48,0.09
		s-0.27,0.15-0.38,0.25c-0.11,0.11-0.21,0.23-0.3,0.37c-0.09,0.14-0.16,0.29-0.22,0.45c-0.06,0.16-0.11,0.32-0.15,0.49
		c-0.04,0.17-0.06,0.33-0.08,0.49c0.38-0.03,0.72-0.07,1.03-0.14c0.3-0.07,0.56-0.15,0.77-0.25c0.21-0.1,0.37-0.23,0.48-0.37
		C330.6,447.57,330.65,447.4,330.65,447.22z"/>
	<path fill="#020203" d="M339.62,451.8l-0.06,0c0.02-0.25,0.04-0.53,0.06-0.83s0.04-0.61,0.05-0.92c0.02-0.31,0.03-0.62,0.04-0.92
		s0.02-0.59,0.03-0.85c0.01-0.26,0.02-0.5,0.02-0.71c0-0.21,0.01-0.37,0.01-0.5c0-0.1,0-0.19-0.01-0.26
		c-0.01-0.07-0.03-0.13-0.05-0.18c-0.03-0.05-0.07-0.08-0.12-0.11s-0.13-0.03-0.22-0.03c-0.05,0-0.09,0-0.14,0.01
		c-0.05,0.01-0.1,0.01-0.16,0.02c-0.06,0.01-0.13,0.02-0.2,0.04c-0.07,0.02-0.16,0.04-0.26,0.06l-0.06-0.29
		c0.45-0.16,0.81-0.27,1.08-0.34c0.28-0.07,0.46-0.1,0.56-0.1c0.18,0,0.3,0.05,0.38,0.15c0.08,0.1,0.11,0.26,0.11,0.46
		c0,0.02,0,0.07-0.01,0.17c-0.01,0.09-0.01,0.21-0.02,0.36c-0.01,0.15-0.02,0.32-0.03,0.51s-0.03,0.4-0.05,0.62
		s-0.04,0.45-0.06,0.69c-0.02,0.24-0.04,0.48-0.07,0.72l0.04,0c0.13-0.53,0.27-1.02,0.44-1.47c0.16-0.46,0.34-0.85,0.55-1.19
		c0.2-0.34,0.43-0.6,0.67-0.79c0.24-0.19,0.51-0.29,0.8-0.29c0.1,0,0.2,0.02,0.29,0.05s0.17,0.08,0.23,0.13s0.12,0.13,0.15,0.21
		c0.04,0.08,0.06,0.17,0.06,0.26c0,0.12-0.03,0.24-0.08,0.35c-0.05,0.11-0.13,0.21-0.25,0.3h-0.03c-0.11-0.09-0.22-0.16-0.32-0.2
		c-0.1-0.04-0.21-0.06-0.32-0.06c-0.12,0-0.24,0.02-0.35,0.07c-0.11,0.05-0.22,0.11-0.31,0.2c-0.15,0.14-0.29,0.32-0.43,0.55
		s-0.25,0.48-0.36,0.76c-0.11,0.28-0.21,0.57-0.29,0.88c-0.09,0.31-0.16,0.61-0.23,0.9c-0.06,0.29-0.11,0.57-0.15,0.82
		c-0.04,0.26-0.07,0.47-0.08,0.65L339.62,451.8z"/>
	<path fill="#020203" d="M350.7,451.8c0.02-0.25,0.04-0.54,0.05-0.84s0.03-0.62,0.05-0.95c0.01-0.33,0.03-0.66,0.04-1
		s0.02-0.67,0.03-1c0.01-0.32,0.02-0.64,0.02-0.94c0.01-0.3,0.01-0.57,0.01-0.82c0-0.08,0.02-0.15,0.05-0.2
		c0.03-0.05,0.08-0.09,0.13-0.12c0.05-0.03,0.11-0.05,0.17-0.06c0.06-0.01,0.11-0.02,0.16-0.02c0.1,0,0.19,0.01,0.28,0.03
		c0.08,0.02,0.16,0.05,0.24,0.09c-0.04,0.21-0.07,0.45-0.1,0.72s-0.06,0.56-0.09,0.88s-0.05,0.64-0.08,0.97
		c-0.03,0.34-0.05,0.68-0.08,1.02l0.02,0c0.2-0.69,0.42-1.28,0.66-1.75c0.23-0.48,0.47-0.86,0.71-1.15
		c0.24-0.29,0.48-0.51,0.72-0.63c0.24-0.13,0.47-0.19,0.68-0.19c0.15,0,0.29,0.03,0.43,0.08s0.26,0.15,0.37,0.27
		c0.11,0.12,0.2,0.28,0.26,0.48s0.1,0.43,0.1,0.71c0,0.08,0,0.19-0.01,0.32c-0.01,0.14-0.02,0.29-0.03,0.45
		c-0.01,0.17-0.03,0.34-0.05,0.53c-0.02,0.19-0.03,0.37-0.05,0.55c-0.01,0.18-0.03,0.35-0.03,0.51c-0.01,0.16-0.01,0.3-0.01,0.43
		c0,0.21,0.01,0.38,0.03,0.51c0.02,0.13,0.05,0.24,0.09,0.31c0.04,0.08,0.09,0.13,0.16,0.16c0.07,0.03,0.15,0.04,0.25,0.04
		c0.14,0,0.29-0.02,0.44-0.06c0.15-0.04,0.3-0.09,0.46-0.16l0.08,0.21c-0.1,0.08-0.22,0.16-0.37,0.24c-0.15,0.08-0.3,0.16-0.46,0.22
		c-0.16,0.07-0.32,0.12-0.49,0.16c-0.16,0.04-0.3,0.06-0.43,0.06c-0.14,0-0.26-0.04-0.34-0.12c-0.08-0.08-0.15-0.18-0.19-0.32
		c-0.04-0.13-0.07-0.29-0.08-0.47c-0.01-0.18-0.02-0.37-0.02-0.58c0-0.25,0.01-0.51,0.03-0.78c0.02-0.27,0.04-0.52,0.06-0.76
		c0.02-0.24,0.04-0.46,0.06-0.66s0.03-0.36,0.03-0.47c0-0.31-0.06-0.55-0.18-0.69c-0.12-0.15-0.28-0.22-0.47-0.22
		c-0.16,0-0.32,0.07-0.49,0.2s-0.34,0.31-0.51,0.54c-0.17,0.23-0.33,0.5-0.49,0.81c-0.16,0.31-0.3,0.65-0.42,1.01
		c-0.13,0.36-0.23,0.75-0.31,1.14c-0.08,0.4-0.14,0.79-0.16,1.19l-0.84,0.1L350.7,451.8z"/>
	<path fill="#020203" d="M374.32,443.71c0-0.13-0.01-0.23-0.02-0.32s-0.04-0.16-0.08-0.22s-0.1-0.1-0.18-0.12s-0.18-0.04-0.32-0.04
		c-0.09,0-0.2,0-0.33,0.01c-0.13,0.01-0.26,0.02-0.4,0.05l-0.04-0.33c0.39-0.1,0.73-0.18,1.02-0.23c0.28-0.05,0.52-0.07,0.7-0.07
		c0.18,0,0.31,0.02,0.41,0.07c0.1,0.05,0.17,0.12,0.21,0.21c0.04,0.09,0.07,0.21,0.08,0.34c0.01,0.13,0.01,0.29,0.01,0.46
		c0,0.01,0,0.1,0,0.27c0,0.17-0.01,0.39-0.01,0.66s-0.01,0.59-0.02,0.96c-0.01,0.36-0.02,0.75-0.03,1.16
		c-0.01,0.41-0.03,0.83-0.04,1.25c-0.02,0.43-0.03,0.85-0.05,1.25s-0.04,0.79-0.06,1.15s-0.05,0.68-0.07,0.95
		c0.26-0.04,0.5-0.06,0.73-0.08c0.23-0.02,0.44-0.03,0.64-0.03c0.28,0,0.54,0.01,0.78,0.02s0.48,0.02,0.71,0.02
		c0.16,0,0.31-0.02,0.44-0.07c0.13-0.05,0.24-0.13,0.33-0.25c0.09-0.12,0.17-0.28,0.23-0.49s0.11-0.47,0.14-0.79l0.35,0.03
		c0,0.47-0.03,0.86-0.09,1.17c-0.06,0.3-0.13,0.54-0.24,0.72c-0.1,0.18-0.23,0.3-0.37,0.37s-0.31,0.1-0.5,0.1
		c-0.14,0-0.3-0.01-0.47-0.04c-0.17-0.03-0.36-0.06-0.56-0.09c-0.2-0.03-0.42-0.06-0.66-0.09c-0.24-0.03-0.49-0.04-0.77-0.04
		c-0.24,0-0.51,0.02-0.8,0.05c-0.29,0.03-0.58,0.08-0.88,0.16l-0.07-0.01c0.04-0.37,0.08-0.76,0.12-1.19
		c0.03-0.42,0.06-0.86,0.08-1.32c0.02-0.46,0.04-0.92,0.06-1.4c0.02-0.48,0.03-0.96,0.04-1.43c0.01-0.48,0.01-0.95,0.02-1.41
		C374.32,444.6,374.32,444.15,374.32,443.71z"/>
	<path fill="#020203" d="M388.17,446.03c-0.05,0.31-0.08,0.61-0.12,0.92c-0.03,0.31-0.06,0.61-0.08,0.89
		c-0.02,0.29-0.04,0.56-0.04,0.82c-0.01,0.26-0.01,0.49-0.01,0.7c0,0.28,0,0.52,0.01,0.72s0.02,0.37,0.04,0.51
		c0.02,0.14,0.04,0.25,0.07,0.33c0.03,0.08,0.06,0.15,0.1,0.19c0.04,0.04,0.09,0.07,0.14,0.09c0.06,0.01,0.12,0.02,0.19,0.02
		c0.13,0,0.27-0.02,0.42-0.06c0.15-0.04,0.3-0.09,0.45-0.16l0.08,0.21c-0.1,0.08-0.22,0.16-0.37,0.24c-0.15,0.08-0.3,0.16-0.46,0.22
		c-0.16,0.07-0.32,0.12-0.47,0.16c-0.15,0.04-0.29,0.06-0.4,0.06c-0.08,0-0.14-0.01-0.21-0.02c-0.06-0.01-0.12-0.04-0.17-0.09
		c-0.05-0.05-0.09-0.12-0.13-0.21c-0.04-0.09-0.07-0.22-0.1-0.38s-0.04-0.36-0.06-0.6c-0.01-0.24-0.02-0.54-0.02-0.88
		c0-0.2,0-0.43,0.01-0.68s0.01-0.53,0.02-0.82c0.01-0.29,0.02-0.6,0.03-0.92c0.01-0.32,0.03-0.66,0.05-1c0-0.08,0.03-0.14,0.06-0.18
		c0.04-0.05,0.08-0.08,0.13-0.11s0.11-0.04,0.16-0.05c0.06-0.01,0.11-0.01,0.16-0.01C387.84,445.91,388.01,445.95,388.17,446.03z
		 M387.82,444.21c-0.09,0-0.18-0.02-0.25-0.06c-0.07-0.04-0.13-0.09-0.19-0.15c-0.05-0.06-0.09-0.14-0.12-0.22
		c-0.03-0.08-0.04-0.17-0.04-0.25c0-0.12,0.02-0.23,0.06-0.32s0.09-0.17,0.16-0.23s0.14-0.11,0.21-0.14
		c0.08-0.03,0.15-0.05,0.23-0.05c0.09,0,0.17,0.02,0.25,0.05c0.07,0.03,0.13,0.08,0.19,0.14c0.05,0.06,0.09,0.13,0.12,0.2
		c0.03,0.08,0.04,0.16,0.04,0.25c0,0.09-0.02,0.19-0.05,0.28s-0.08,0.18-0.13,0.25s-0.13,0.14-0.21,0.18
		C388.01,444.19,387.92,444.21,387.82,444.21z"/>
	<path fill="#020203" d="M398.43,442.99c-0.11,0.51-0.21,1.04-0.28,1.58c-0.08,0.54-0.14,1.08-0.2,1.61c0.13,0,0.25,0.01,0.37,0.01
		c0.12,0,0.23,0,0.33,0.01s0.2,0,0.28,0c0.08,0,0.15,0,0.21,0c0.24,0,0.44-0.01,0.6-0.04c0.01,0.05,0.02,0.09,0.03,0.13
		c0.01,0.04,0.01,0.07,0.01,0.1c0,0.12-0.05,0.19-0.15,0.23c-0.1,0.04-0.24,0.05-0.43,0.05c-0.18,0-0.38-0.01-0.59-0.03
		s-0.46-0.04-0.72-0.06c-0.03,0.29-0.05,0.57-0.08,0.84c-0.02,0.27-0.04,0.53-0.05,0.77c-0.01,0.24-0.02,0.47-0.03,0.67
		c-0.01,0.21-0.01,0.39-0.01,0.54c0,0.29,0.01,0.54,0.04,0.77s0.08,0.42,0.16,0.57s0.18,0.28,0.31,0.36c0.13,0.08,0.3,0.13,0.5,0.13
		c0.15,0,0.31-0.03,0.49-0.08s0.38-0.13,0.61-0.25c0.07,0.07,0.11,0.16,0.13,0.27c-0.17,0.11-0.33,0.21-0.5,0.3
		c-0.17,0.09-0.33,0.17-0.5,0.23s-0.32,0.11-0.48,0.15c-0.15,0.03-0.3,0.05-0.43,0.05c-0.18,0-0.34-0.03-0.49-0.1
		c-0.15-0.07-0.28-0.18-0.39-0.35c-0.11-0.17-0.19-0.39-0.25-0.68c-0.06-0.28-0.09-0.64-0.09-1.08c0-0.24,0-0.5,0.01-0.76
		c0.01-0.26,0.02-0.52,0.03-0.79s0.03-0.53,0.05-0.8s0.04-0.53,0.07-0.79c-0.21,0-0.41,0.01-0.59,0.03
		c-0.18,0.01-0.34,0.04-0.47,0.07c-0.01-0.02-0.01-0.04-0.01-0.06c0-0.06,0.03-0.11,0.08-0.16c0.06-0.05,0.13-0.09,0.23-0.13
		c0.1-0.04,0.22-0.07,0.35-0.1c0.14-0.03,0.29-0.05,0.45-0.06c0.06-0.56,0.13-1.09,0.2-1.59c0.07-0.5,0.14-0.95,0.21-1.34
		c0.01-0.07,0.04-0.13,0.07-0.17s0.08-0.08,0.13-0.11c0.05-0.03,0.1-0.04,0.16-0.06s0.11-0.02,0.17-0.02c0.09,0,0.17,0.01,0.24,0.03
		S398.37,442.96,398.43,442.99z"/>
	<path fill="#020203" d="M410.96,450.45c0.02,0.01,0.04,0.02,0.06,0.03s0.05,0.03,0.07,0.05c0.02,0.02,0.04,0.04,0.06,0.06
		c0.02,0.02,0.02,0.04,0.02,0.06c0,0.01,0,0.02-0.01,0.03c-0.15,0.21-0.31,0.39-0.49,0.55c-0.17,0.15-0.35,0.28-0.54,0.39
		c-0.19,0.1-0.38,0.18-0.57,0.23s-0.38,0.08-0.57,0.08c-0.32,0-0.62-0.07-0.89-0.2c-0.27-0.13-0.5-0.31-0.69-0.54
		c-0.19-0.23-0.34-0.5-0.45-0.8s-0.16-0.64-0.16-0.99c0-0.29,0.03-0.57,0.09-0.86c0.06-0.29,0.15-0.56,0.27-0.82
		c0.12-0.26,0.27-0.5,0.44-0.73c0.17-0.22,0.37-0.42,0.59-0.58s0.46-0.29,0.72-0.39c0.26-0.09,0.54-0.14,0.84-0.14
		c0.2,0,0.39,0.03,0.57,0.08c0.18,0.05,0.34,0.13,0.47,0.23s0.24,0.23,0.32,0.37c0.08,0.15,0.12,0.32,0.12,0.5
		c0,0.27-0.09,0.51-0.27,0.72c-0.18,0.2-0.43,0.38-0.74,0.52c-0.31,0.14-0.68,0.26-1.11,0.34c-0.43,0.09-0.89,0.15-1.38,0.2v0.07
		c0,0.34,0.04,0.66,0.13,0.94c0.09,0.29,0.21,0.53,0.36,0.73c0.15,0.2,0.33,0.36,0.54,0.47c0.21,0.11,0.43,0.17,0.67,0.17
		c0.24,0,0.49-0.06,0.74-0.18S410.69,450.72,410.96,450.45z M410.2,447.22c0-0.12-0.02-0.24-0.06-0.35c-0.04-0.11-0.1-0.2-0.17-0.28
		c-0.07-0.08-0.16-0.14-0.26-0.19c-0.1-0.04-0.21-0.07-0.33-0.07c-0.17,0-0.33,0.03-0.48,0.09s-0.27,0.15-0.38,0.25
		c-0.11,0.11-0.21,0.23-0.3,0.37c-0.09,0.14-0.16,0.29-0.22,0.45c-0.06,0.16-0.11,0.32-0.15,0.49c-0.04,0.17-0.06,0.33-0.08,0.49
		c0.38-0.03,0.72-0.07,1.03-0.14c0.3-0.07,0.56-0.15,0.77-0.25c0.21-0.1,0.37-0.23,0.48-0.37
		C410.14,447.57,410.2,447.4,410.2,447.22z"/>
	<path fill="#020203" d="M419.16,451.8l-0.06,0c0.02-0.25,0.04-0.53,0.06-0.83s0.04-0.61,0.05-0.92c0.02-0.31,0.03-0.62,0.04-0.92
		s0.02-0.59,0.03-0.85c0.01-0.26,0.02-0.5,0.02-0.71c0-0.21,0.01-0.37,0.01-0.5c0-0.1,0-0.19-0.01-0.26
		c-0.01-0.07-0.03-0.13-0.05-0.18c-0.03-0.05-0.07-0.08-0.12-0.11s-0.13-0.03-0.22-0.03c-0.05,0-0.09,0-0.14,0.01
		c-0.05,0.01-0.1,0.01-0.16,0.02c-0.06,0.01-0.13,0.02-0.2,0.04c-0.07,0.02-0.16,0.04-0.26,0.06l-0.06-0.29
		c0.45-0.16,0.81-0.27,1.08-0.34c0.28-0.07,0.46-0.1,0.56-0.1c0.18,0,0.3,0.05,0.38,0.15c0.08,0.1,0.11,0.26,0.11,0.46
		c0,0.02,0,0.07-0.01,0.17c-0.01,0.09-0.01,0.21-0.02,0.36c-0.01,0.15-0.02,0.32-0.03,0.51s-0.03,0.4-0.05,0.62
		s-0.04,0.45-0.06,0.69c-0.02,0.24-0.04,0.48-0.07,0.72l0.04,0c0.13-0.53,0.27-1.02,0.44-1.47c0.16-0.46,0.34-0.85,0.55-1.19
		c0.2-0.34,0.43-0.6,0.67-0.79c0.24-0.19,0.51-0.29,0.8-0.29c0.1,0,0.2,0.02,0.29,0.05s0.17,0.08,0.23,0.13s0.12,0.13,0.15,0.21
		c0.04,0.08,0.06,0.17,0.06,0.26c0,0.12-0.03,0.24-0.08,0.35c-0.05,0.11-0.13,0.21-0.25,0.3h-0.03c-0.11-0.09-0.22-0.16-0.32-0.2
		c-0.1-0.04-0.21-0.06-0.32-0.06c-0.12,0-0.24,0.02-0.35,0.07c-0.11,0.05-0.22,0.11-0.31,0.2c-0.15,0.14-0.29,0.32-0.43,0.55
		s-0.25,0.48-0.36,0.76c-0.11,0.28-0.21,0.57-0.29,0.88c-0.09,0.31-0.16,0.61-0.23,0.9c-0.06,0.29-0.11,0.57-0.15,0.82
		c-0.04,0.26-0.07,0.47-0.08,0.65L419.16,451.8z"/>
	<path fill="#020203" d="M433.19,447.56c0-0.21-0.04-0.4-0.1-0.55c-0.07-0.16-0.16-0.28-0.27-0.38c-0.11-0.1-0.24-0.17-0.38-0.22
		c-0.14-0.05-0.28-0.07-0.43-0.07c-0.19,0-0.35,0.02-0.48,0.06s-0.24,0.1-0.32,0.17c-0.08,0.07-0.14,0.15-0.18,0.25
		c-0.04,0.09-0.05,0.2-0.05,0.31c0,0.13,0.02,0.26,0.07,0.39c0.05,0.13,0.12,0.26,0.21,0.38l-0.02,0.04
		c-0.15,0.08-0.31,0.11-0.46,0.11c-0.09,0-0.18-0.01-0.26-0.04s-0.15-0.07-0.21-0.12s-0.1-0.12-0.14-0.2s-0.05-0.17-0.05-0.26
		c0-0.16,0.04-0.31,0.12-0.45s0.18-0.27,0.3-0.38c0.13-0.12,0.27-0.22,0.44-0.31c0.17-0.09,0.34-0.17,0.52-0.23
		c0.18-0.06,0.36-0.11,0.53-0.14c0.18-0.03,0.34-0.05,0.5-0.05c0.28,0,0.52,0.04,0.72,0.11c0.2,0.08,0.36,0.18,0.49,0.33
		s0.22,0.32,0.27,0.52s0.09,0.44,0.09,0.69c0,0.18-0.01,0.37-0.02,0.58c-0.01,0.21-0.03,0.43-0.05,0.67
		c-0.02,0.23-0.04,0.47-0.05,0.72s-0.02,0.49-0.02,0.74c0,0.39,0.07,0.68,0.22,0.87c0.14,0.19,0.33,0.29,0.57,0.29
		c0.21,0,0.44-0.08,0.69-0.23l0.12,0.17c-0.18,0.18-0.38,0.32-0.59,0.41c-0.21,0.09-0.43,0.14-0.67,0.14
		c-0.17,0-0.34-0.03-0.48-0.09c-0.15-0.06-0.28-0.15-0.38-0.26s-0.19-0.26-0.25-0.44c-0.06-0.18-0.09-0.38-0.09-0.62
		c0-0.07,0-0.14,0.01-0.21c0-0.07,0.01-0.14,0.03-0.22h-0.02c-0.12,0.23-0.25,0.46-0.4,0.68c-0.15,0.22-0.32,0.42-0.5,0.6
		c-0.18,0.18-0.38,0.32-0.58,0.43c-0.21,0.11-0.42,0.16-0.65,0.16c-0.19,0-0.35-0.03-0.51-0.1s-0.28-0.15-0.39-0.27
		c-0.11-0.11-0.19-0.25-0.25-0.4s-0.09-0.32-0.09-0.5c0-0.24,0.04-0.45,0.13-0.64s0.21-0.37,0.36-0.52c0.15-0.15,0.34-0.29,0.55-0.4
		s0.45-0.2,0.7-0.28c0.25-0.07,0.52-0.13,0.8-0.17c0.28-0.04,0.57-0.05,0.86-0.05c0.02-0.17,0.03-0.33,0.05-0.49
		C433.18,447.92,433.19,447.75,433.19,447.56z M430.71,450.33c0,0.1,0.01,0.21,0.03,0.3c0.02,0.1,0.06,0.18,0.11,0.25
		c0.05,0.07,0.11,0.13,0.19,0.17c0.08,0.04,0.17,0.06,0.28,0.06c0.12,0,0.25-0.03,0.38-0.08s0.26-0.13,0.38-0.23
		c0.13-0.1,0.25-0.22,0.36-0.36c0.11-0.14,0.22-0.29,0.31-0.45c0.09-0.16,0.17-0.34,0.23-0.52c0.06-0.18,0.1-0.37,0.12-0.56
		c-0.2,0.01-0.4,0.02-0.59,0.04c-0.2,0.02-0.38,0.05-0.56,0.09s-0.34,0.1-0.49,0.17c-0.15,0.07-0.28,0.16-0.39,0.26
		c-0.11,0.1-0.19,0.23-0.26,0.37S430.71,450.14,430.71,450.33z"/>
	<path fill="#020203" d="M444.4,442.99c-0.11,0.51-0.21,1.04-0.28,1.58c-0.08,0.54-0.14,1.08-0.2,1.61c0.13,0,0.25,0.01,0.37,0.01
		c0.12,0,0.23,0,0.33,0.01s0.2,0,0.28,0c0.08,0,0.15,0,0.21,0c0.24,0,0.44-0.01,0.6-0.04c0.01,0.05,0.02,0.09,0.03,0.13
		c0.01,0.04,0.01,0.07,0.01,0.1c0,0.12-0.05,0.19-0.15,0.23c-0.1,0.04-0.24,0.05-0.43,0.05c-0.18,0-0.38-0.01-0.59-0.03
		s-0.46-0.04-0.72-0.06c-0.03,0.29-0.05,0.57-0.08,0.84c-0.02,0.27-0.04,0.53-0.05,0.77c-0.01,0.24-0.02,0.47-0.03,0.67
		c-0.01,0.21-0.01,0.39-0.01,0.54c0,0.29,0.01,0.54,0.04,0.77s0.08,0.42,0.16,0.57s0.18,0.28,0.31,0.36c0.13,0.08,0.3,0.13,0.5,0.13
		c0.15,0,0.31-0.03,0.49-0.08s0.38-0.13,0.61-0.25c0.07,0.07,0.11,0.16,0.13,0.27c-0.17,0.11-0.33,0.21-0.5,0.3
		c-0.17,0.09-0.33,0.17-0.5,0.23s-0.32,0.11-0.48,0.15c-0.15,0.03-0.3,0.05-0.43,0.05c-0.18,0-0.34-0.03-0.49-0.1
		c-0.15-0.07-0.28-0.18-0.39-0.35c-0.11-0.17-0.19-0.39-0.25-0.68c-0.06-0.28-0.09-0.64-0.09-1.08c0-0.24,0-0.5,0.01-0.76
		c0.01-0.26,0.02-0.52,0.03-0.79s0.03-0.53,0.05-0.8s0.04-0.53,0.07-0.79c-0.21,0-0.41,0.01-0.59,0.03
		c-0.18,0.01-0.34,0.04-0.47,0.07c-0.01-0.02-0.01-0.04-0.01-0.06c0-0.06,0.03-0.11,0.08-0.16c0.06-0.05,0.13-0.09,0.23-0.13
		c0.1-0.04,0.22-0.07,0.35-0.1c0.14-0.03,0.29-0.05,0.45-0.06c0.06-0.56,0.13-1.09,0.2-1.59c0.07-0.5,0.14-0.95,0.21-1.34
		c0.01-0.07,0.04-0.13,0.07-0.17s0.08-0.08,0.13-0.11c0.05-0.03,0.1-0.04,0.16-0.06s0.11-0.02,0.17-0.02c0.09,0,0.17,0.01,0.24,0.03
		S444.34,442.96,444.4,442.99z"/>
	<path fill="#020203" d="M458,445.93c-0.02,0.25-0.05,0.53-0.07,0.81c-0.02,0.29-0.04,0.57-0.05,0.86
		c-0.02,0.29-0.03,0.57-0.04,0.84c-0.01,0.27-0.01,0.53-0.01,0.76c0,0.44,0.03,0.8,0.08,1.07c0.05,0.28,0.12,0.5,0.2,0.66
		c0.08,0.16,0.17,0.27,0.28,0.33s0.21,0.09,0.31,0.09c0.06,0,0.12-0.01,0.18-0.02c0.06-0.02,0.12-0.04,0.17-0.06
		c0.05-0.02,0.1-0.05,0.15-0.07c0.04-0.03,0.08-0.05,0.12-0.07l0.13,0.18c-0.08,0.08-0.17,0.16-0.27,0.23
		c-0.1,0.07-0.2,0.13-0.31,0.19c-0.11,0.05-0.23,0.09-0.35,0.12s-0.24,0.04-0.37,0.04c-0.16,0-0.31-0.03-0.45-0.09
		c-0.15-0.06-0.28-0.17-0.39-0.31s-0.21-0.34-0.28-0.58c-0.07-0.24-0.1-0.54-0.1-0.9c0-0.12,0-0.23,0.01-0.35
		c0-0.12,0.01-0.24,0.03-0.37c0.01-0.13,0.03-0.27,0.05-0.42s0.04-0.32,0.06-0.5l-0.04-0.01c-0.18,0.67-0.38,1.24-0.59,1.7
		c-0.21,0.46-0.43,0.82-0.66,1.1c-0.22,0.28-0.45,0.48-0.67,0.6c-0.23,0.12-0.44,0.18-0.64,0.18c-0.24,0-0.44-0.06-0.6-0.2
		c-0.16-0.13-0.29-0.31-0.38-0.53c-0.09-0.22-0.16-0.49-0.2-0.78c-0.04-0.3-0.06-0.61-0.06-0.95c0-0.28,0.01-0.57,0.03-0.87
		s0.04-0.59,0.07-0.87s0.06-0.56,0.1-0.82c0.04-0.26,0.07-0.49,0.11-0.7c0.01-0.08,0.04-0.14,0.07-0.18
		c0.03-0.05,0.07-0.08,0.11-0.11c0.04-0.02,0.08-0.04,0.13-0.05c0.05-0.01,0.1-0.01,0.15-0.01c0.09,0,0.18,0.01,0.26,0.03
		c0.08,0.02,0.16,0.05,0.24,0.09c-0.05,0.3-0.09,0.61-0.13,0.91c-0.04,0.3-0.08,0.59-0.11,0.88c-0.03,0.28-0.05,0.56-0.07,0.82
		c-0.02,0.26-0.03,0.51-0.03,0.74c0,0.25,0.01,0.47,0.04,0.67c0.03,0.2,0.07,0.38,0.13,0.52c0.06,0.15,0.14,0.26,0.23,0.34
		c0.09,0.08,0.21,0.12,0.34,0.12c0.23,0,0.46-0.12,0.7-0.37c0.24-0.25,0.47-0.61,0.68-1.08s0.4-1,0.56-1.59s0.25-1.23,0.29-1.91
		l0.85-0.1L458,445.93z"/>
	<path fill="#020203" d="M466.82,451.8l-0.06,0c0.02-0.25,0.04-0.53,0.06-0.83s0.04-0.61,0.05-0.92c0.02-0.31,0.03-0.62,0.04-0.92
		s0.02-0.59,0.03-0.85c0.01-0.26,0.02-0.5,0.02-0.71c0-0.21,0.01-0.37,0.01-0.5c0-0.1,0-0.19-0.01-0.26
		c-0.01-0.07-0.03-0.13-0.05-0.18c-0.03-0.05-0.07-0.08-0.12-0.11s-0.13-0.03-0.22-0.03c-0.05,0-0.09,0-0.14,0.01
		c-0.05,0.01-0.1,0.01-0.16,0.02c-0.06,0.01-0.13,0.02-0.2,0.04c-0.07,0.02-0.16,0.04-0.26,0.06l-0.06-0.29
		c0.45-0.16,0.81-0.27,1.08-0.34c0.28-0.07,0.46-0.1,0.56-0.1c0.18,0,0.3,0.05,0.38,0.15c0.08,0.1,0.11,0.26,0.11,0.46
		c0,0.02,0,0.07-0.01,0.17c-0.01,0.09-0.01,0.21-0.02,0.36c-0.01,0.15-0.02,0.32-0.03,0.51s-0.03,0.4-0.05,0.62
		s-0.04,0.45-0.06,0.69c-0.02,0.24-0.04,0.48-0.07,0.72l0.04,0c0.13-0.53,0.27-1.02,0.44-1.47c0.16-0.46,0.34-0.85,0.55-1.19
		c0.2-0.34,0.43-0.6,0.67-0.79c0.24-0.19,0.51-0.29,0.8-0.29c0.1,0,0.2,0.02,0.29,0.05s0.17,0.08,0.23,0.13s0.12,0.13,0.15,0.21
		c0.04,0.08,0.06,0.17,0.06,0.26c0,0.12-0.03,0.24-0.08,0.35c-0.05,0.11-0.13,0.21-0.25,0.3h-0.03c-0.11-0.09-0.22-0.16-0.32-0.2
		c-0.1-0.04-0.21-0.06-0.32-0.06c-0.12,0-0.24,0.02-0.35,0.07c-0.11,0.05-0.22,0.11-0.31,0.2c-0.15,0.14-0.29,0.32-0.43,0.55
		s-0.25,0.48-0.36,0.76c-0.11,0.28-0.21,0.57-0.29,0.88c-0.09,0.31-0.16,0.61-0.23,0.9c-0.06,0.29-0.11,0.57-0.15,0.82
		c-0.04,0.26-0.07,0.47-0.08,0.65L466.82,451.8z"/>
	<path fill="#020203" d="M481.6,450.45c0.02,0.01,0.04,0.02,0.06,0.03s0.05,0.03,0.07,0.05c0.02,0.02,0.04,0.04,0.06,0.06
		c0.02,0.02,0.02,0.04,0.02,0.06c0,0.01,0,0.02-0.01,0.03c-0.15,0.21-0.31,0.39-0.49,0.55c-0.17,0.15-0.35,0.28-0.54,0.39
		c-0.19,0.1-0.38,0.18-0.57,0.23s-0.38,0.08-0.57,0.08c-0.32,0-0.62-0.07-0.89-0.2c-0.27-0.13-0.5-0.31-0.69-0.54
		c-0.19-0.23-0.34-0.5-0.45-0.8s-0.16-0.64-0.16-0.99c0-0.29,0.03-0.57,0.09-0.86c0.06-0.29,0.15-0.56,0.27-0.82
		c0.12-0.26,0.27-0.5,0.44-0.73c0.17-0.22,0.37-0.42,0.59-0.58s0.46-0.29,0.72-0.39c0.26-0.09,0.54-0.14,0.84-0.14
		c0.2,0,0.39,0.03,0.57,0.08c0.18,0.05,0.34,0.13,0.47,0.23s0.24,0.23,0.32,0.37c0.08,0.15,0.12,0.32,0.12,0.5
		c0,0.27-0.09,0.51-0.27,0.72c-0.18,0.2-0.43,0.38-0.74,0.52c-0.31,0.14-0.68,0.26-1.11,0.34c-0.43,0.09-0.89,0.15-1.38,0.2v0.07
		c0,0.34,0.04,0.66,0.13,0.94c0.09,0.29,0.21,0.53,0.36,0.73c0.15,0.2,0.33,0.36,0.54,0.47c0.21,0.11,0.43,0.17,0.67,0.17
		c0.24,0,0.49-0.06,0.74-0.18S481.34,450.72,481.6,450.45z M480.85,447.22c0-0.12-0.02-0.24-0.06-0.35c-0.04-0.11-0.1-0.2-0.17-0.28
		c-0.07-0.08-0.16-0.14-0.26-0.19c-0.1-0.04-0.21-0.07-0.33-0.07c-0.17,0-0.33,0.03-0.48,0.09s-0.27,0.15-0.38,0.25
		c-0.11,0.11-0.21,0.23-0.3,0.37c-0.09,0.14-0.16,0.29-0.22,0.45c-0.06,0.16-0.11,0.32-0.15,0.49c-0.04,0.17-0.06,0.33-0.08,0.49
		c0.38-0.03,0.72-0.07,1.03-0.14c0.3-0.07,0.56-0.15,0.77-0.25c0.21-0.1,0.37-0.23,0.48-0.37
		C480.79,447.57,480.85,447.4,480.85,447.22z"/>
</g>
<g>
	<g>
		<path fill="#7F8080" d="M198.46,405.51v2.23v12.84v14.78h15.19c8.16,0,14.78-6.62,14.78-14.78v0v-12.84v-2.23H198.46z"/>
	</g>
	<polygon fill="#01699D" points="175.1,405.38 175.1,407.61 175.1,420.45 175.1,435.22 196.23,435.5 196.23,420.45 196.23,407.61 
		196.23,405.38 	"/>
	<g>
		<g>
			<path fill="#01699D" d="M225.42,386.06v14.08h-23.96v-14.08H225.42 M228.42,383.06h-29.96v20.08h29.96V383.06L228.42,383.06z"/>
		</g>
	</g>
	<g>
		<path fill="#EA5057" d="M193.23,386.06v14.08h-16.54l-9.57-14.08H193.23 M196.23,383.06h-34.78l13.65,20.08h21.13V383.06
			L196.23,383.06z"/>
	</g>
	<g>
		<path fill="#7F8080" d="M159.22,388.4l7.98,11.74h-15.97L159.22,388.4 M159.22,383.06l-13.65,20.08h27.3L159.22,383.06
			L159.22,383.06z"/>
	</g>
</g>
<rect x="145.57" y="405.51" fill="#EA5057" width="27.3" height="29.53"/>
</svg>
